<svg width="17" height="17" viewBox="0 0 17 17" fill="none" xmlns="http://www.w3.org/2000/svg">
<g clip-path="url(#clip0)">
<path d="M16.7748 8.19582L14.8671 6.74754C14.6946 6.61658 14.4636 6.59436 14.2694 6.69112C14.0759 6.78702 13.9533 6.98475 13.9533 7.20119V8.08737H13.389V7.19175C13.389 6.87717 13.134 6.62211 12.8196 6.62211H11.6858V4.50707C11.6858 4.19243 11.4307 3.93743 11.1163 3.93743H9.34488V3.3329H9.82173C10.1363 3.3329 10.3913 3.07784 10.3913 2.76332C10.3913 2.44879 10.1363 2.19385 9.82173 2.19385H6.14231C5.82784 2.19385 5.57278 2.44879 5.57278 2.76332C5.57278 3.07784 5.82784 3.3329 6.14231 3.3329H6.61951V3.93743H4.41772C4.1032 3.93743 3.84814 4.19243 3.84814 4.50707V5.61878H2.73585C2.42127 5.61878 2.16627 5.87379 2.16627 6.18831V7.49119H1.139V5.87523C1.139 5.5607 0.883994 5.3057 0.56947 5.3057C0.254946 5.30564 0 5.5607 0 5.87517V11.8324C0 12.1469 0.254946 12.4018 0.569528 12.4018C0.884051 12.4018 1.13906 12.1468 1.13906 11.8324V10.2163H2.16638V11.552C2.16638 11.8665 2.42138 12.1215 2.73597 12.1215H4.16819L6.17754 14.5961C6.2857 14.7292 6.44814 14.8065 6.61962 14.8065H12.8197C13.1342 14.8065 13.3891 14.5514 13.3891 14.2369V13.4844H13.9534V14.2369C13.9534 14.4594 14.0829 14.6613 14.2849 14.7544C14.361 14.7894 14.4423 14.8065 14.5229 14.8065C14.6564 14.8065 14.7882 14.7595 14.8937 14.6693L16.8013 13.0343C16.9276 12.9259 17.0001 12.768 17.0001 12.6017V8.6493C17 8.47143 16.9166 8.30346 16.7748 8.19582Z" fill="#CCCCCC"/>
</g>
<defs>
<clipPath id="clip0">
<rect width="17" height="17" fill="white"/>
</clipPath>
</defs>
</svg>
