<svg width="16" height="16" viewBox="0 0 16 16" fill="none" xmlns="http://www.w3.org/2000/svg">
<path d="M15.6496 14.0913L14.2529 5.74716C14.1215 4.9604 13.4401 4.38541 12.6426 4.38541H10.544C10.7901 3.95668 10.9308 3.46001 10.9308 2.93111C10.9308 1.31496 9.61617 0 7.99967 0C6.38352 0 5.06856 1.31496 5.06856 2.93111C5.06856 3.46001 5.20928 3.95668 5.45535 4.38541H3.35675C2.5589 4.38541 1.87785 4.96109 1.74649 5.74786L0.350078 14.0931C0.270708 14.5662 0.404146 15.0531 0.714344 15.4191C1.02489 15.7855 1.48031 16 1.96068 16H14.0401C14.5204 16 14.9758 15.7855 15.2864 15.4191C15.5962 15.0524 15.7293 14.5648 15.6496 14.0913ZM8.00002 1.70765C8.67449 1.70765 9.22348 2.25665 9.22348 2.93146C9.22348 3.60627 8.67449 4.15493 8.00002 4.15493C7.32521 4.15493 6.77621 3.60593 6.77621 2.93111C6.77621 2.2563 7.32521 1.70765 8.00002 1.70765Z" fill="#CCCCCC"/>
</svg>
