<svg width="26" height="26" viewBox="0 0 26 26" fill="none" xmlns="http://www.w3.org/2000/svg">
<path d="M13.0999 4.33673C9.79988 4.22552 7.08984 6.8675 7.08984 10.1424C7.08984 13.859 10.6565 16.5563 12.6557 20.4354C12.7572 20.6323 13.0407 20.6326 13.1425 20.4356C14.951 16.9453 18.042 14.6048 18.6148 11.2422C19.208 7.76264 16.6276 4.45566 13.0999 4.33673ZM12.8988 13.1852C11.2184 13.1852 9.85604 11.8228 9.85604 10.1424C9.85604 8.46196 11.2184 7.0996 12.8988 7.0996C14.5793 7.0996 15.9416 8.46196 15.9416 10.1424C15.9416 11.8228 14.5793 13.1852 12.8988 13.1852Z" fill="#0D3896"/>
</svg>
