<svg width="17" height="17" viewBox="0 0 17 17" fill="none" xmlns="http://www.w3.org/2000/svg">
<path d="M8.5 0C3.81318 0 0 3.81318 0 8.5C0 13.1868 3.81318 17 8.5 17C13.1868 17 17 13.1868 17 8.5C17 3.81318 13.1868 0 8.5 0ZM1.77082 8.85418H1.0625C0.866734 8.85418 0.708322 8.69577 0.708322 8.5C0.708322 8.30423 0.866734 8.14582 1.0625 8.14582H1.77082C1.96659 8.14582 2.125 8.30423 2.125 8.5C2.125 8.69577 1.96659 8.85418 1.77082 8.85418ZM8.14582 1.0625C8.14582 0.866734 8.30423 0.708322 8.5 0.708322C8.69577 0.708322 8.85418 0.866734 8.85418 1.0625V1.77082C8.85418 1.96659 8.69577 2.125 8.5 2.125C8.30423 2.125 8.14582 1.96659 8.14582 1.77082V1.0625ZM8.85418 15.9375C8.85418 16.1333 8.69577 16.2917 8.5 16.2917C8.30423 16.2917 8.14582 16.1333 8.14582 15.9375V15.2292C8.14582 15.0334 8.30423 14.875 8.5 14.875C8.69577 14.875 8.85418 15.0334 8.85418 15.2292V15.9375ZM11.9379 11.9379C11.8688 12.0071 11.7781 12.0417 11.6875 12.0417C11.5969 12.0417 11.5063 12.0071 11.4371 11.9379L8.67259 9.17343C8.61591 9.18807 8.56119 9.20836 8.5 9.20836C8.10953 9.20836 7.79168 8.8905 7.79168 8.50003C7.79168 8.13317 8.07563 7.84045 8.43343 7.80519L10.6582 3.03775C10.7412 2.86101 10.9522 2.78528 11.1289 2.86656C11.3064 2.94923 11.3828 3.16021 11.3001 3.33728L9.07375 8.10784C9.15194 8.22172 9.20832 8.35175 9.20832 8.5C9.20832 8.56116 9.18804 8.61591 9.17339 8.67259L11.9379 11.4371C12.0762 11.5754 12.0762 11.7996 11.9379 11.9379ZM15.9375 8.85418H15.2292C15.0334 8.85418 14.875 8.69577 14.875 8.5C14.875 8.30423 15.0334 8.14582 15.2292 8.14582H15.9375C16.1333 8.14582 16.2917 8.30423 16.2917 8.5C16.2917 8.69577 16.1333 8.85418 15.9375 8.85418Z" fill="#0D3896"/>
</svg>
