<svg width="18" height="18" viewBox="0 0 18 18" fill="none" xmlns="http://www.w3.org/2000/svg">
<g clip-path="url(#clip0)">
<path d="M17.8417 3.57612L12.3827 8.99999L17.8417 14.4239C17.9404 14.2176 18.0002 13.9896 18.0002 13.7461V4.2539C18.0002 4.01037 17.9404 3.78238 17.8417 3.57612Z" fill="#0D3896"/>
<path d="M16.4164 2.67188H1.58047C1.33695 2.67188 1.10896 2.73175 0.902696 2.83043L7.87991 9.7725C8.49683 10.3894 9.50005 10.3894 10.117 9.7725L17.0942 2.83043C16.8879 2.73175 16.6599 2.67188 16.4164 2.67188Z" fill="#0D3896"/>
<path d="M0.158555 3.57612C0.0598711 3.78238 0 4.01037 0 4.2539V13.7461C0 13.9896 0.0598711 14.2176 0.158555 14.4239L5.61758 8.99999L0.158555 3.57612Z" fill="#0D3896"/>
<path d="M11.6352 9.7457L10.8627 10.5182C9.83474 11.5461 8.16211 11.5461 7.13418 10.5182L6.36172 9.7457L0.902696 15.1696C1.10896 15.2683 1.33695 15.3281 1.58047 15.3281H16.4164C16.6599 15.3281 16.8879 15.2683 17.0942 15.1696L11.6352 9.7457Z" fill="#0D3896"/>
</g>
<defs>
<clipPath id="clip0">
<rect width="18" height="18" fill="white"/>
</clipPath>
</defs>
</svg>
