<svg width="64" height="64" viewBox="0 0 64 64" fill="none" xmlns="http://www.w3.org/2000/svg">
<path d="M56.5 23.5H8L4 28.5L2 35.5L1 43L3 49L8 50.5H24L25 48.5L39 49V50.5H56L61 49L62.5 41.5L60.5 32L56.5 23.5Z" fill="#FFBB00"/>
<path d="M59.3326 25.9725C60.9109 25.2313 61.5715 24.0585 61.7707 23.0771C63.0392 22.8296 64 21.7109 64 20.3711C64 18.8503 62.7627 17.6129 61.2417 17.6129H60.4033C58.8824 17.6129 57.6451 18.8501 57.6451 20.3711C57.6451 21.6459 58.5157 22.7185 59.6927 23.0329C59.6785 23.0663 59.6632 23.0995 59.6463 23.1334C59.4034 23.613 58.9416 23.9885 58.2715 24.2554C57.9263 23.7378 57.6455 23.3553 57.467 23.1215C57.3946 21.9101 57.03 17.6344 55.3483 13.2958C52.6934 6.44576 48.0406 2.82501 41.8932 2.82501H27.693C27.1406 2.82501 26.6928 3.27276 26.6928 3.82526C26.6928 4.37776 27.1406 4.82551 27.693 4.82551H41.8934C47.2062 4.82551 51.1001 7.90414 53.4664 13.9756C54.7906 17.3733 55.2537 20.8194 55.4095 22.4886H8.5905C8.74625 20.8191 9.20962 17.373 10.5336 13.9756C12.8999 7.90414 16.7938 4.82551 22.1066 4.82551H23.6919C24.2443 4.82551 24.6921 4.37776 24.6921 3.82526C24.6921 3.27276 24.2443 2.82501 23.6919 2.82501H22.1066C15.9592 2.82501 11.3065 6.44564 8.65162 13.2958C6.97012 17.6344 6.60538 21.91 6.53288 23.1215C6.35437 23.3553 6.07363 23.7378 5.72837 24.2554C5.05825 23.9885 4.5965 23.6129 4.35362 23.1334C4.3365 23.0995 4.32137 23.066 4.30713 23.0329C5.48413 22.7183 6.35475 21.6459 6.35475 20.3711C6.35475 18.8503 5.1175 17.6129 3.59663 17.6129H2.75813C1.23725 17.6131 0 18.8504 0 20.3713C0 21.7111 0.96075 22.8296 2.22925 23.0773C2.4285 24.0586 3.08913 25.2313 4.6675 25.9726C4.25688 26.6881 3.81813 27.5175 3.3825 28.45C3.37925 28.4564 3.3765 28.463 3.37337 28.4695C3.29012 28.6479 3.207 28.8286 3.12438 29.0145C1.56413 32.5195 -0.155375 38.0624 0.49475 44.5841V56.0061C0.49475 58.856 2.81337 61.1746 5.66325 61.1746C8.51312 61.1746 10.8317 58.856 10.8317 56.0061V51.7236H23.5595V53.2405C23.5595 53.793 24.0074 54.2408 24.5597 54.2408H39.4404C39.9928 54.2408 40.4406 53.793 40.4406 53.2405V51.7238H53.1684V56.0063C53.1684 58.8561 55.487 61.1748 58.3369 61.1748C61.1868 61.1748 63.5054 58.8561 63.5054 56.0063V44.5843C64.1555 38.0625 62.436 32.5196 60.8758 29.0144C60.3569 27.8488 59.8245 26.8298 59.3326 25.9725ZM59.6459 20.3713C59.6459 19.9535 59.9857 19.6136 60.4034 19.6136H61.2419C61.6596 19.6136 61.9995 19.9536 61.9995 20.3713C61.9995 20.789 61.6596 21.1288 61.2419 21.1288H60.4034C59.9857 21.1288 59.6459 20.789 59.6459 20.3713ZM3.59675 21.1288H2.75813C2.34037 21.1288 2.00062 20.7889 2.00062 20.3713C2.00062 19.9535 2.3405 19.6136 2.75813 19.6136H3.59675C4.0145 19.6136 4.35425 19.9536 4.35425 20.3713C4.35425 20.7889 4.01438 21.1288 3.59675 21.1288ZM8.00875 24.4898H55.9911C56.4548 25.1174 57.4336 26.5351 58.4489 28.5738C57.8849 28.9589 57.2951 29.3068 56.686 29.6154C55.9293 29.1156 55.0239 28.8235 54.051 28.8235C52.2439 28.8235 50.6675 29.8289 49.8505 31.3093C49.7614 31.3108 49.6724 31.3129 49.5836 31.3129H14.4165C14.3278 31.3129 14.2387 31.3108 14.1496 31.3093C13.3326 29.8289 11.7563 28.8235 9.94913 28.8235C8.9765 28.8235 8.07088 29.1155 7.31425 29.6154C6.70337 29.3059 6.112 28.9568 5.54663 28.5705C6.55988 26.541 7.54362 25.1184 8.00875 24.4898ZM56.8451 33.6183C56.8451 35.159 55.5917 36.4124 54.051 36.4124C52.5103 36.4124 51.2569 35.159 51.2569 33.6183C51.2569 32.0776 52.5103 30.8241 54.051 30.8241C55.5917 30.8241 56.8451 32.0775 56.8451 33.6183ZM12.7432 33.6183C12.7432 35.159 11.4899 36.4124 9.94913 36.4124C8.40837 36.4124 7.155 35.159 7.155 33.6183C7.155 32.0776 8.40837 30.8241 9.94913 30.8241C11.4897 30.8241 12.7432 32.0775 12.7432 33.6183ZM2.39425 40.2764C2.41537 40.314 2.42125 40.3366 2.42125 40.3366L2.39062 40.3491C2.39175 40.3249 2.39287 40.3006 2.39425 40.2764ZM8.83125 56.0061C8.83125 57.753 7.41025 59.174 5.66337 59.174C3.9165 59.174 2.49537 57.753 2.49537 56.0061V49.1445C2.50312 49.1529 2.51137 49.1609 2.51912 49.1695C3.67075 50.4276 5.24512 51.298 6.92375 51.5981C7.55687 51.7114 8.19063 51.7236 8.83125 51.7236V56.0061ZM38.4401 52.2401H25.56V49.2065H38.44V52.2401H38.4401ZM58.3368 59.174C56.5899 59.174 55.1689 57.753 55.1689 56.0061V51.7236C56.1245 51.7236 57.0616 51.6646 57.9808 51.3804C58.7978 51.1275 59.5634 50.7494 60.2603 50.2533C60.7034 49.9378 61.1138 49.5715 61.4808 49.1698C61.4886 49.1613 61.4969 49.1533 61.5046 49.1446V56.0061H61.5047C61.5046 57.753 60.0836 59.174 58.3368 59.174ZM61.5099 44.4384C61.2035 47.4511 58.6955 49.723 55.6763 49.723H54.1686H40.4406V48.2063C40.4406 47.6538 39.9928 47.206 39.4404 47.206H24.5596C24.0072 47.206 23.5594 47.6538 23.5594 48.2063V49.7231H9.8315H8.32375C5.3045 49.7231 2.79662 47.4511 2.49012 44.4385C2.43175 43.864 2.39313 43.2975 2.37238 42.7399C2.97662 43.0769 3.77712 43.4296 4.8385 43.7658C5.44212 44.5911 6.41725 45.1288 7.51587 45.1288C8.0855 45.1288 8.62187 44.9843 9.09062 44.7303C12.4304 45.2669 16.6171 45.5398 21.5487 45.5398H42.4514C47.383 45.5398 51.5697 45.267 54.9092 44.7303C55.378 44.9844 55.9145 45.1288 56.4841 45.1288C57.5829 45.1288 58.5579 44.5911 59.1615 43.7658C60.2226 43.4296 61.0229 43.077 61.6273 42.74C61.606 43.2983 61.5683 43.8643 61.5099 44.4384ZM6.20075 41.813C6.20075 41.0879 6.79075 40.498 7.51587 40.498C8.241 40.498 8.831 41.088 8.831 41.813C8.831 42.5383 8.241 43.1281 7.51587 43.1281C6.79075 43.1281 6.20075 42.5383 6.20075 41.813ZM55.1688 41.813C55.1688 41.0879 55.7588 40.498 56.4839 40.498C57.209 40.498 57.799 41.088 57.799 41.813C57.799 42.5383 57.209 43.1281 56.4839 43.1281C55.7588 43.1281 55.1688 42.5383 55.1688 41.813ZM61.6119 40.3501L61.5786 40.3365C61.5786 40.3365 61.5849 40.3121 61.6082 40.2719C61.6096 40.2979 61.6106 40.3241 61.6119 40.3501ZM59.7751 41.4159C59.5781 39.7744 58.1777 38.4975 56.4841 38.4975C54.6557 38.4975 53.1684 39.9849 53.1684 41.8131C53.1684 42.2068 53.2378 42.5844 53.3641 42.9349C50.3454 43.3356 46.686 43.5393 42.4514 43.5393H21.5486C17.314 43.5393 13.6546 43.3356 10.6359 42.9349C10.7622 42.5844 10.8316 42.2066 10.8316 41.8131C10.8316 39.9849 9.34412 38.4975 7.51587 38.4975C5.82212 38.4975 4.42188 39.7744 4.22487 41.4159C2.86937 40.8463 2.461 40.362 2.39438 40.2729C2.60913 36.2898 3.66113 32.8811 4.7005 30.4101C5.07925 30.6585 5.4675 30.8923 5.86412 31.111C5.41437 31.8411 5.15438 32.6998 5.15438 33.6183C5.15438 36.262 7.30525 38.4129 9.949 38.4129C12.5928 38.4129 14.7436 36.262 14.7436 33.6183C14.7436 33.5159 14.7393 33.4144 14.7329 33.3135H49.267C49.2606 33.4144 49.2562 33.5159 49.2562 33.6183C49.2562 36.262 51.4071 38.4129 54.0509 38.4129C56.6946 38.4129 58.8455 36.262 58.8455 33.6183C58.8455 32.6998 58.5854 31.8411 58.1357 31.1111C58.5301 30.8938 58.9162 30.6611 59.293 30.4144C60.4082 33.062 61.4022 36.4253 61.6081 40.2694C61.5489 40.3498 61.1469 40.8393 59.7751 41.4159Z" fill="black"/>
<path d="M45.8787 37.523H35.0297C34.609 36.252 33.4102 35.332 32 35.332C30.5897 35.332 29.3908 36.252 28.9702 37.523H18.1213C17.569 37.523 17.1211 37.9708 17.1211 38.5233C17.1211 39.0758 17.569 39.5235 18.1213 39.5235H28.9703C29.391 40.7945 30.5898 41.7145 32.0001 41.7145C33.4103 41.7145 34.6091 40.7945 35.0298 39.5235H45.8788C46.4312 39.5235 46.8791 39.0758 46.8791 38.5233C46.8791 37.9708 46.4312 37.523 45.8787 37.523ZM32.0002 39.714C31.3436 39.714 30.8095 39.1799 30.8095 38.5233C30.8095 37.8666 31.3436 37.3325 32.0002 37.3325C32.6568 37.3325 33.191 37.8666 33.191 38.5233C33.1908 39.1799 32.6566 39.714 32.0002 39.714Z" fill="black"/>
<path d="M52.9196 19.2915C52.5902 17.65 52.1526 16.1194 51.6186 14.742C50.6817 12.3241 49.4751 10.4311 48.0324 9.11537C46.3437 7.57524 44.336 6.82661 41.8944 6.82661H39.4305C38.8781 6.82661 38.4302 7.27436 38.4302 7.82687C38.4302 8.37937 38.8781 8.82712 39.4305 8.82712H41.8944C43.8144 8.82712 45.3812 9.40487 46.6844 10.5934C47.8965 11.699 48.9291 13.338 49.7534 15.465C50.115 16.3976 50.4294 17.4106 50.6925 18.4881H23.0627C22.5104 18.4881 22.0625 18.9359 22.0625 19.4884C22.0625 20.0409 22.5104 20.4886 23.0627 20.4886H51.9387C52.2385 20.4886 52.5225 20.3541 52.7125 20.1222C52.9025 19.8905 52.9785 19.5856 52.9196 19.2915Z" fill="black"/>
<path d="M35.4258 6.82663H22.1039C19.6896 6.8265 17.7007 7.558 16.0239 9.06301C14.589 10.3506 13.3843 12.2069 12.4432 14.58C11.8794 16.0019 11.42 17.5871 11.0782 19.2915C11.0192 19.5855 11.095 19.8904 11.285 20.1223C11.4749 20.3541 11.759 20.4886 12.0588 20.4886H19.0584C19.6108 20.4886 20.0587 20.0409 20.0587 19.4884C20.0587 18.9359 19.6108 18.4881 19.0584 18.4881H13.3053C13.5823 17.3546 13.9164 16.292 14.3029 15.3175C15.1288 13.2346 16.1574 11.6311 17.36 10.5521C18.6533 9.39151 20.2051 8.82726 22.1041 8.82726H35.4259C35.9783 8.82726 36.4262 8.37951 36.4262 7.82701C36.4261 7.27438 35.9782 6.82663 35.4258 6.82663Z" fill="black"/>
</svg>
