<svg width="72" height="72" viewBox="0 0 72 72" fill="none" xmlns="http://www.w3.org/2000/svg">
<path d="M60.1875 36H10.6875V54L11.8125 57.9375L15.1875 59.625H57.375L60.1875 57.9375V55.125V36Z" fill="#FFBB00"/>
<path d="M17.9844 44.4414C17.2396 44.4414 16.5116 44.6623 15.8923 45.0761C15.273 45.4899 14.7904 46.078 14.5054 46.7661C14.2204 47.4542 14.1458 48.2113 14.2911 48.9418C14.4364 49.6723 14.7951 50.3432 15.3217 50.8699C15.8484 51.3965 16.5194 51.7551 17.2499 51.9004C17.9803 52.0457 18.7375 51.9711 19.4256 51.6861C20.1136 51.401 20.7017 50.9183 21.1155 50.2991C21.5293 49.6798 21.7501 48.9517 21.7501 48.2069C21.7489 47.2086 21.3518 46.2515 20.6459 45.5456C19.9399 44.8396 18.9828 44.4426 17.9844 44.4414ZM17.9844 50.2851C17.5734 50.2851 17.1716 50.1632 16.8298 49.9349C16.4881 49.7065 16.2217 49.382 16.0644 49.0022C15.9072 48.6225 15.866 48.2046 15.9462 47.8015C16.0264 47.3984 16.2243 47.0281 16.5149 46.7375C16.8056 46.4468 17.1759 46.2489 17.579 46.1687C17.9821 46.0885 18.4 46.1297 18.7797 46.287C19.1594 46.4443 19.484 46.7106 19.7123 47.0524C19.9407 47.3941 20.0626 47.7959 20.0626 48.2069C20.0617 48.7579 19.8425 49.286 19.453 49.6755C19.0634 50.0651 18.5353 50.2843 17.9844 50.2851Z" fill="black"/>
<path d="M54.0157 51.9726C54.7604 51.9726 55.4885 51.7518 56.1077 51.338C56.727 50.9242 57.2096 50.3361 57.4947 49.648C57.7797 48.9599 57.8542 48.2028 57.7089 47.4723C57.5636 46.7419 57.205 46.0709 56.6784 45.5443C56.1517 45.0176 55.4808 44.659 54.7503 44.5137C54.0198 44.3684 53.2627 44.443 52.5746 44.728C51.8865 45.013 51.2984 45.4956 50.8846 46.1149C50.4709 46.7341 50.25 47.4622 50.25 48.207C50.2512 49.2053 50.6483 50.1625 51.3542 50.8684C52.0602 51.5744 53.0173 51.9715 54.0157 51.9726ZM54.0157 46.129C54.4267 46.129 54.8285 46.2508 55.1702 46.4792C55.512 46.7076 55.7783 47.0321 55.9356 47.4119C56.0929 47.7916 56.1341 48.2095 56.0539 48.6126C55.9737 49.0157 55.7757 49.386 55.4851 49.6766C55.1944 49.9673 54.8241 50.1652 54.421 50.2454C54.0179 50.3255 53.6 50.2843 53.2203 50.127C52.8405 49.9697 52.516 49.7033 52.2877 49.3616C52.0593 49.0198 51.9375 48.618 51.9375 48.207C51.9382 47.656 52.1573 47.1278 52.5469 46.7383C52.9365 46.3487 53.4647 46.1296 54.0157 46.129Z" fill="black"/>
<path d="M68.8515 16.4531H67.7812V15.5378C67.7812 14.0944 66.2813 12.9375 64.2999 12.9375H61.7344V11.0635C61.7361 10.3484 61.5964 9.63991 61.3233 8.97893C61.0502 8.31795 60.6491 7.71748 60.1431 7.21205C59.6372 6.70662 59.0363 6.30621 58.375 6.03384C57.7137 5.76148 57.0051 5.62253 56.2899 5.625H50.4844V3.9375C50.4844 3.71372 50.3955 3.49911 50.2372 3.34088C50.079 3.18264 49.8644 3.09375 49.6406 3.09375H22.3594C22.1356 3.09375 21.921 3.18264 21.7628 3.34088C21.6045 3.49911 21.5156 3.71372 21.5156 3.9375V5.625H15.7101C14.9949 5.62253 14.2863 5.76148 13.625 6.03384C12.9637 6.30621 12.3628 6.70662 11.8569 7.21205C11.3509 7.71748 10.9498 8.31795 10.6767 8.97893C10.4036 9.63991 10.2639 10.3484 10.2656 11.0635V12.9375H7.70006C5.71866 12.9375 4.21875 14.0944 4.21875 15.5378V16.4531H3.14845C2.95818 16.4501 2.7692 16.485 2.59247 16.5555C2.41574 16.6261 2.25477 16.731 2.11889 16.8643C1.983 16.9975 1.8749 17.1564 1.80085 17.3317C1.72681 17.507 1.68828 17.6952 1.6875 17.8855V25.0248C1.68866 25.2141 1.72761 25.4012 1.80204 25.5752C1.87648 25.7493 1.98491 25.9067 2.12098 26.0383C2.25706 26.1699 2.41803 26.2729 2.59446 26.3415C2.7709 26.41 2.95924 26.4427 3.14845 26.4375H7.22658C8.03208 26.4375 8.71875 25.8304 8.71875 25.0248V17.8855C8.71004 17.4979 8.54811 17.1296 8.26842 16.8611C7.98873 16.5927 7.61406 16.446 7.22644 16.4531H5.90625V15.5378C5.90625 15.1848 6.59025 14.625 7.70006 14.625H10.2656V55.536C10.2612 56.9201 10.7807 58.2545 11.7198 59.2711C12.659 60.2878 13.9481 60.9113 15.3281 61.0163V66.6454C15.328 67.2403 15.5624 67.8113 15.9805 68.2346C16.3986 68.6578 16.9667 68.8991 17.5615 68.9062H22.2609C22.8532 68.8982 23.4181 68.6558 23.832 68.232C24.2458 67.8083 24.4748 67.2377 24.4688 66.6454V61.0312H47.1094V66.6454C47.1114 67.2414 47.3479 67.8126 47.7677 68.2356C48.1875 68.6587 48.7568 68.8996 49.3528 68.9062H54.0527C54.6439 68.8977 55.2074 68.6547 55.6195 68.2308C56.0315 67.8068 56.2583 67.2366 56.25 66.6454V61.0312H56.2899C57.7403 61.0234 59.1282 60.4403 60.149 59.41C61.1698 58.3797 61.74 56.9864 61.7344 55.536V14.625H64.2999C65.4097 14.625 66.0938 15.1848 66.0938 15.5378V16.4531H64.7734C64.3858 16.446 64.0112 16.5927 63.7315 16.8611C63.4518 17.1296 63.2899 17.498 63.2812 17.8855V25.0248C63.2812 25.8304 63.9678 26.4375 64.7734 26.4375H68.8515C69.0408 26.4427 69.2291 26.41 69.4055 26.3415C69.582 26.2729 69.7429 26.1699 69.879 26.0383C70.0151 25.9067 70.1235 25.7493 70.198 25.5752C70.2724 25.4012 70.3113 25.2141 70.3125 25.0248V17.8855C70.3117 17.6952 70.2732 17.507 70.1991 17.3317C70.1251 17.1564 70.017 16.9975 69.8811 16.8643C69.7452 16.731 69.5843 16.6261 69.4075 16.5555C69.2308 16.485 69.0418 16.4501 68.8515 16.4531ZM7.03125 18.1406V24.75H3.375V18.1406H7.03125ZM23.2031 4.78125H48.7969V9.28125H23.2031V4.78125ZM22.7812 66.6454C22.7876 66.7903 22.7366 66.9318 22.6391 67.0392C22.5417 67.1466 22.4057 67.2111 22.2609 67.2188H17.5615C17.4141 67.2122 17.275 67.1488 17.1732 67.042C17.0714 66.9351 17.015 66.793 17.0156 66.6454V61.0312H22.7812V66.6454ZM54.5625 66.6454C54.5668 66.7166 54.5569 66.7878 54.5336 66.8552C54.5103 66.9225 54.4739 66.9846 54.4266 67.0378C54.3792 67.0911 54.3218 67.1345 54.2577 67.1655C54.1935 67.1966 54.1239 67.2147 54.0527 67.2188H49.3528C49.2043 67.2126 49.0639 67.1497 48.9604 67.043C48.857 66.9363 48.7984 66.794 48.7969 66.6454V61.0312H54.5625V66.6454ZM60.0469 55.536C60.053 56.539 59.6607 57.5033 58.9563 58.2173C58.2519 58.9312 57.2929 59.3364 56.2899 59.3438H15.7101C14.7071 59.3364 13.7481 58.9312 13.0437 58.2173C12.3393 57.5033 11.947 56.539 11.9531 55.536V36.7031H15.3281C15.5519 36.7031 15.7665 36.6142 15.9247 36.456C16.083 36.2978 16.1719 36.0832 16.1719 35.8594C16.1719 35.6356 16.083 35.421 15.9247 35.2628C15.7665 35.1045 15.5519 35.0156 15.3281 35.0156H11.9531V15.4688H35.1562V35.0156H20.9531C20.7293 35.0156 20.5147 35.1045 20.3565 35.2628C20.1983 35.421 20.1094 35.6356 20.1094 35.8594C20.1094 36.0832 20.1983 36.2978 20.3565 36.456C20.5147 36.6142 20.7293 36.7031 20.9531 36.7031H60.0469V55.536ZM60.0469 35.0156H36.8438V15.4688H60.0469V35.0156ZM60.0469 13.7812H11.9531V11.0635C11.9512 10.5699 12.0471 10.0808 12.2353 9.62441C12.4235 9.16806 12.7002 8.75351 13.0495 8.40473C13.3989 8.05595 13.8139 7.77985 14.2705 7.59238C14.7272 7.40491 15.2164 7.30978 15.7101 7.3125H21.5156V10.125C21.5156 10.3488 21.6045 10.5634 21.7628 10.7216C21.921 10.8799 22.1356 10.9688 22.3594 10.9688H49.6406C49.8644 10.9688 50.079 10.8799 50.2372 10.7216C50.3955 10.5634 50.4844 10.3488 50.4844 10.125V7.3125H56.2899C56.7836 7.30978 57.2728 7.40491 57.7295 7.59238C58.1861 7.77985 58.6011 8.05595 58.9505 8.40473C59.2998 8.75351 59.5765 9.16806 59.7647 9.62441C59.9529 10.0808 60.0488 10.5699 60.0469 11.0635V13.7812ZM68.625 24.75H64.9688V18.1406H68.625V24.75Z" fill="black"/>
<path d="M23.3438 43.0312V51.75C23.3438 51.9738 23.4326 52.1884 23.5909 52.3466C23.7491 52.5049 23.9637 52.5938 24.1875 52.5938H47.6719C47.8957 52.5938 48.1103 52.5049 48.2685 52.3466C48.4267 52.1884 48.5156 51.9738 48.5156 51.75V43.0312C48.5156 42.8075 48.4267 42.5929 48.2685 42.4346C48.1103 42.2764 47.8957 42.1875 47.6719 42.1875H24.1875C23.9637 42.1875 23.7491 42.2764 23.5909 42.4346C23.4326 42.5929 23.3438 42.8075 23.3438 43.0312ZM25.0312 43.875H46.9688V45.1406H25.0312V43.875ZM25.0312 46.8281H46.9688V48.0938H25.0312V46.8281ZM25.0312 49.7812H46.9688V50.9062H25.0312V49.7812Z" fill="black"/>
<path d="M14.7998 20.9497L16.6405 19.1091C16.7188 19.0308 16.781 18.9377 16.8233 18.8354C16.8657 18.733 16.8876 18.6233 16.8876 18.5125C16.8876 18.4017 16.8657 18.2919 16.8233 18.1896C16.7809 18.0872 16.7187 17.9942 16.6404 17.9158C16.562 17.8375 16.469 17.7753 16.3666 17.7329C16.2643 17.6906 16.1545 17.6687 16.0437 17.6687C15.9329 17.6687 15.8232 17.6906 15.7208 17.733C15.6185 17.7754 15.5255 17.8376 15.4471 17.9159L13.6065 19.7565C13.4482 19.9148 13.3594 20.1294 13.3594 20.3532C13.3594 20.577 13.4483 20.7916 13.6065 20.9498C13.7648 21.108 13.9794 21.1969 14.2032 21.1969C14.427 21.1969 14.6416 21.108 14.7998 20.9497Z" fill="black"/>
<path d="M20.4249 17.544C20.3465 17.4656 20.2535 17.4034 20.1511 17.361C20.0487 17.3186 19.939 17.2968 19.8282 17.2968C19.7174 17.2968 19.6077 17.3186 19.5053 17.361C19.4029 17.4034 19.3099 17.4656 19.2315 17.544L13.8878 22.8877C13.8094 22.9661 13.7473 23.0591 13.7049 23.1615C13.6625 23.2639 13.6406 23.3736 13.6406 23.4844C13.6406 23.5952 13.6625 23.7049 13.7049 23.8073C13.7473 23.9097 13.8094 24.0027 13.8878 24.0811C13.9661 24.1594 14.0592 24.2216 14.1615 24.264C14.2639 24.3064 14.3736 24.3282 14.4844 24.3282C14.5953 24.3282 14.705 24.3064 14.8074 24.264C14.9097 24.2216 15.0028 24.1594 15.0811 24.0811L20.4249 18.7373C20.5032 18.659 20.5654 18.5659 20.6078 18.4636C20.6502 18.3612 20.6721 18.2515 20.6721 18.1406C20.6721 18.0298 20.6502 17.9201 20.6078 17.8177C20.5654 17.7153 20.5032 17.6223 20.4249 17.544Z" fill="black"/>
<path d="M57.375 31.2697C57.5988 31.2697 57.8134 31.1808 57.9716 31.0225C58.1299 30.8643 58.2188 30.6497 58.2188 30.4259V21.9021C58.2188 21.6783 58.1299 21.4637 57.9716 21.3055C57.8134 21.1472 57.5988 21.0583 57.375 21.0583C57.1512 21.0583 56.9366 21.1472 56.7784 21.3055C56.6201 21.4637 56.5312 21.6783 56.5312 21.9021V30.4259C56.5312 30.6497 56.6201 30.8643 56.7784 31.0225C56.9366 31.1808 57.1512 31.2697 57.375 31.2697Z" fill="black"/>
<path d="M57.375 19.5978C57.5988 19.5978 57.8134 19.5089 57.9716 19.3507C58.1299 19.1924 58.2188 18.9778 58.2188 18.754V17.9646C58.2188 17.7408 58.1299 17.5262 57.9716 17.368C57.8134 17.2097 57.5988 17.1208 57.375 17.1208C57.1512 17.1208 56.9366 17.2097 56.7784 17.368C56.6201 17.5262 56.5312 17.7408 56.5312 17.9646V18.754C56.5312 18.9778 56.6201 19.1924 56.7784 19.3507C56.9366 19.5089 57.1512 19.5978 57.375 19.5978Z" fill="black"/>
</svg>
