<svg width="24" height="24" viewBox="0 0 24 24" fill="none" xmlns="http://www.w3.org/2000/svg">
<path d="M12.0933 4.00313C9.04716 3.90047 6.54559 6.33922 6.54559 9.36219C6.54559 12.7929 9.83793 15.2827 11.6833 18.8634C11.777 19.0452 12.0387 19.0454 12.1327 18.8637C13.8021 15.6418 16.6553 13.4813 17.1841 10.3774C17.7315 7.1655 15.3497 4.11291 12.0933 4.00313ZM11.9077 12.1709C10.3565 12.1709 9.099 10.9134 9.099 9.36219C9.099 7.81103 10.3566 6.55347 11.9077 6.55347C13.4589 6.55347 14.7165 7.81103 14.7165 9.36219C14.7165 10.9134 13.4589 12.1709 11.9077 12.1709Z" fill="#404040"/>
</svg>
