<svg width="34" height="34" viewBox="0 0 34 34" fill="none" xmlns="http://www.w3.org/2000/svg">
<path d="M33.5846 31.5824L23.9159 21.9138C25.7887 19.6004 26.9164 16.6608 26.9164 13.4592C26.9164 6.03877 20.8786 0.000976562 13.4582 0.000976562C6.03773 0.000976562 0 6.03871 0 13.4591C0 20.8796 6.0378 26.9174 13.4582 26.9174C16.6598 26.9174 19.5994 25.7897 21.9128 23.9169L31.5814 33.5855C31.8577 33.8618 32.2203 34.0006 32.583 34.0006C32.9457 34.0006 33.3084 33.8618 33.5846 33.5855C34.1385 33.0317 34.1385 32.1363 33.5846 31.5824ZM13.4582 24.084C7.59893 24.084 2.83333 19.3184 2.83333 13.4591C2.83333 7.59984 7.59893 2.83424 13.4582 2.83424C19.3175 2.83424 24.0831 7.59984 24.0831 13.4591C24.0831 19.3184 19.3175 24.084 13.4582 24.084Z" fill="#FFBB00"/>
</svg>
