<svg width="117" height="29" viewBox="0 0 117 29" fill="none" xmlns="http://www.w3.org/2000/svg">
<g style="mix-blend-mode:luminosity">
<path d="M0.761662 25.9736C0.84091 25.9869 0.937769 25.9918 1.05334 25.9918C1.41326 25.9918 1.73135 25.8625 1.93442 25.6269C2.14685 25.3859 2.25747 25.0623 2.25637 24.6881C2.25637 24.1966 1.98285 23.9055 1.43307 23.9055C1.3175 23.9055 1.22009 23.9104 1.1513 23.9236L0.761662 25.9736ZM0.572347 23.4388C0.835406 23.392 1.13149 23.3689 1.43197 23.3689C1.91736 23.3689 2.3059 23.4806 2.56896 23.7068C2.81936 23.9148 2.9773 24.2247 2.98226 24.6826C2.98391 25.2846 2.72966 25.8069 2.34277 26.1173C1.98285 26.4035 1.52497 26.5289 0.850816 26.5289C0.476039 26.5289 0.152442 26.5014 0 26.4733L0.572347 23.4388Z" fill="#337ABE"/>
<path d="M7.3513 23.3916L6.76465 26.5104H6.09985L6.6854 23.3916H7.3513Z" fill="#337ABE"/>
<path d="M12.9314 26.367C12.6909 26.4452 12.3167 26.5426 11.9232 26.5426C11.4945 26.5426 11.1428 26.4314 10.8831 26.2003C10.6332 25.978 10.4896 25.6362 10.489 25.2378C10.4879 24.655 10.7273 24.1514 11.1247 23.8135C11.4752 23.5213 11.9551 23.3595 12.4955 23.3595C12.9028 23.3595 13.2033 23.4387 13.3232 23.4982L13.1257 24.0628C12.9826 23.9984 12.7421 23.9329 12.4647 23.9329C12.1549 23.9329 11.8781 24.021 11.67 24.1833C11.4026 24.3963 11.2232 24.7661 11.2232 25.1915C11.2243 25.7138 11.5341 25.978 12.0244 25.978C12.1769 25.978 12.2875 25.9549 12.3613 25.9229L12.4851 25.2653H12.0046L12.1059 24.7337H13.2379L12.9314 26.367Z" fill="#337ABE"/>
<path d="M17.6804 23.3916L17.0949 26.5104H16.429L17.0151 23.3916H17.6804Z" fill="#337ABE"/>
<path d="M21.7267 23.9744H20.9045L21.0185 23.3916H23.3343L23.2242 23.9744H22.3927L21.9216 26.5104H21.2557L21.7267 23.9744Z" fill="#337ABE"/>
<path d="M27.5436 25.1918L27.4825 24.5209C27.4682 24.3498 27.4484 24.1005 27.4347 23.9106H27.4259C27.3477 24.1005 27.2597 24.3404 27.1771 24.5209L26.8689 25.1918H27.5436ZM26.6752 25.7008L26.307 26.5104H25.5999L27.1105 23.3916H27.9652L28.3361 26.5104H27.6377L27.5722 25.7008H26.6752Z" fill="#337ABE"/>
<path d="M32.235 23.3916H32.9004L32.4249 25.927H33.6219L33.5107 26.5104H31.6489L32.235 23.3916Z" fill="#337ABE"/>
<path d="M42.4308 25.1918L42.3698 24.5209C42.3554 24.3498 42.3356 24.1005 42.3219 23.9106H42.3131C42.2349 24.1005 42.1469 24.3404 42.0643 24.5209L41.7556 25.1918H42.4308ZM41.5624 25.7008L41.1942 26.5104H40.4871L41.9977 23.3916H42.8518L43.2233 26.5104H42.5249L42.4595 25.7008H41.5624Z" fill="#337ABE"/>
<path d="M48.9765 26.367C48.736 26.4452 48.3623 26.5426 47.9688 26.5426C47.5396 26.5426 47.1879 26.4314 46.9287 26.2003C46.6783 25.978 46.5352 25.6362 46.5347 25.2378C46.533 24.655 46.7724 24.1514 47.1692 23.8135C47.5203 23.5213 48.0008 23.3595 48.5406 23.3595C48.9479 23.3595 49.2489 23.4387 49.3683 23.4982L49.1713 24.0628C49.0277 23.9984 48.7872 23.9329 48.5098 23.9329C48.2005 23.9329 47.9232 24.021 47.7157 24.1833C47.4477 24.3963 47.2683 24.7661 47.2688 25.1915C47.2699 25.7138 47.5798 25.978 48.0701 25.978C48.222 25.978 48.3337 25.9549 48.4069 25.9229L48.5302 25.2653H48.0497L48.151 24.7337H49.283L48.9765 26.367Z" fill="#337ABE"/>
<path d="M54.5107 25.1874H53.4013L53.2593 25.9413H54.5025L54.3979 26.5104H52.4883L53.0744 23.3916H54.918L54.8085 23.9607H53.6352L53.5069 24.6271H54.6153L54.5107 25.1874Z" fill="#337ABE"/>
<path d="M57.8535 26.5104L58.4402 23.3916H59.2216L59.6344 24.5804C59.7599 24.9788 59.8441 25.3029 59.9195 25.6453H59.9332C59.9464 25.3261 59.9871 24.9843 60.0736 24.5253L60.2849 23.3916H60.9035L60.3223 26.5104H59.6333L59.1974 25.265C59.0576 24.8445 58.9734 24.5622 58.8898 24.1786L58.876 24.183C58.8392 24.4835 58.7671 24.9276 58.6746 25.418L58.4743 26.5104H57.8535Z" fill="#337ABE"/>
<path d="M66.2461 26.4225C66.0794 26.4968 65.7993 26.5563 65.4239 26.5563C64.6017 26.5563 64.0459 26.0566 64.0437 25.2333C64.0432 24.5343 64.3563 23.9884 64.8279 23.6742C65.1499 23.448 65.5345 23.3407 65.9732 23.3407C66.3111 23.3407 66.5642 23.4194 66.6523 23.4755L66.474 24.017C66.3804 23.9703 66.1773 23.9147 65.9099 23.9147C65.6408 23.9147 65.3871 23.9989 65.1983 24.1557C64.9347 24.3687 64.769 24.7248 64.769 25.159C64.7712 25.6543 65.0497 25.9872 65.5989 25.9872C65.8158 25.9872 66.032 25.9509 66.19 25.886L66.2461 26.4225Z" fill="#337ABE"/>
<path d="M70.2012 26.5104L70.4412 25.2375L69.8303 23.3916H70.543L70.7428 24.183C70.7989 24.4422 70.8319 24.5903 70.8633 24.7477H70.8732C70.9662 24.5804 71.0581 24.4053 71.1913 24.1786L71.6569 23.3916H72.451L71.1109 25.2237L70.8671 26.5104H70.2012Z" fill="#337ABE"/>
<path d="M108.072 15.1213H108.909C109.866 15.1213 110.403 14.7141 110.521 13.8968L110.585 13.3817C110.703 12.5551 110.285 12.1413 109.328 12.1413H107.218L106.815 15.0085C107.03 15.0525 107.234 15.0817 107.427 15.0977C107.621 15.1131 107.836 15.1213 108.072 15.1213Z" fill="#F04D44"/>
<path d="M117 14.4719C117 6.47939 110.521 0.000318527 102.528 0.000318527C100.978 0.000318527 99.4898 0.24962 98.0897 0.699795L96.4481 11.6949C96.4338 11.794 96.4024 11.8853 96.3639 11.9734L95.7304 16.5235C95.698 16.7701 95.6671 17.0172 95.6413 17.2643C95.6138 17.5114 95.5951 17.7508 95.5846 17.9808C95.5736 18.2125 95.5791 18.4244 95.6006 18.6175C95.6226 18.8118 95.66 18.978 95.7134 19.1172C95.8642 19.2895 96.0744 19.4183 96.3424 19.5041C96.611 19.59 96.901 19.634 97.2125 19.634C97.6313 19.634 98.0336 19.5548 98.4205 19.3996C98.8074 19.2444 99.0699 19.0154 99.2096 18.7155C99.285 18.5532 99.3472 18.3363 99.3957 18.0617C99.4435 17.7882 99.5057 17.4041 99.5811 16.9099L100.418 10.8523C100.461 10.5838 100.509 10.3774 100.563 10.231C100.616 10.0863 100.696 9.98171 100.798 9.91732C100.899 9.85294 101.03 9.81606 101.191 9.80451C101.353 9.7935 101.562 9.78855 101.82 9.78855C102.121 9.78855 102.357 9.7913 102.529 9.7968C102.702 9.80231 102.825 9.83643 102.9 9.90137C102.975 9.96575 103.012 10.0709 103.012 10.2162C103.012 10.3603 102.991 10.5728 102.949 10.8523L102.11 16.9099C102.068 17.2004 102.022 17.5037 101.973 17.8207C101.925 18.1371 101.858 18.4244 101.773 18.683C101.611 19.1761 101.38 19.6269 101.08 20.0363C100.778 20.4446 100.418 20.7925 99.9988 21.083C99.5811 21.3736 99.11 21.5965 98.59 21.7517C98.0683 21.9074 97.513 21.9806 96.9225 21.9696C95.6749 21.9586 94.7151 21.6752 94.0382 21.1166C93.3618 20.5575 93.0118 19.7463 92.9903 18.683C92.9903 18.4244 93.0041 18.1448 93.0299 17.8449C93.058 17.5433 93.0976 17.2379 93.1521 16.9269L93.9886 10.8523C94.0172 10.6779 94.0481 10.5392 94.0811 10.417L95.3507 1.91603C90.9959 4.41124 88.0549 9.09403 88.0549 14.4719C88.0549 22.3692 94.3832 28.7767 102.244 28.9297L103.779 18.6506L104.736 11.7703C104.52 11.6844 104.355 11.5799 104.237 11.4566C104.119 11.3328 104.049 11.2057 104.027 11.0774L104.124 10.2877C104.146 10.1375 104.213 10.0169 104.326 9.92503C104.439 9.83422 104.57 9.78855 104.72 9.78855H109.78C111.122 9.78855 112.073 10.0764 112.632 10.6504C113.19 11.2255 113.383 12.0983 113.211 13.2683L113.098 14.123C112.937 15.2501 112.497 16.0937 111.778 16.6523C111.057 17.2114 110.031 17.4905 108.7 17.4905H108.362C107.867 17.4684 107.47 17.4552 107.17 17.4492C106.869 17.4437 106.664 17.4316 106.557 17.4096H106.525V17.3936L104.83 28.7442C111.725 27.6386 117 21.6796 117 14.4719Z" fill="#F04D44"/>
<path d="M103.013 10.2159C103.013 10.0706 102.975 9.9655 102.9 9.90166C102.825 9.83673 102.702 9.80205 102.529 9.79655C102.357 9.7916 102.121 9.78885 101.82 9.78885C101.562 9.78885 101.353 9.79325 101.192 9.80426C101.03 9.81581 100.899 9.85324 100.798 9.91707C100.696 9.98146 100.616 10.0866 100.564 10.2308C100.509 10.3772 100.461 10.5835 100.418 10.8521L99.5813 16.9096C99.5059 17.4044 99.4437 17.7885 99.3958 18.062C99.3474 18.3366 99.2852 18.5529 99.2098 18.7153C99.07 19.0152 98.8075 19.2441 98.4206 19.3993C98.0338 19.5551 97.6315 19.6338 97.2127 19.6338C96.9012 19.6338 96.6111 19.5897 96.3426 19.5039C96.0746 19.4186 95.8643 19.2893 95.7135 19.1176C95.6602 18.9778 95.6227 18.8116 95.6007 18.6178C95.5793 18.4241 95.5738 18.2123 95.5848 17.9806C95.5952 17.7505 95.6139 17.5117 95.6414 17.2646C95.6673 17.0169 95.6981 16.7698 95.7306 16.5233L96.364 11.9731C96.4026 11.8851 96.4339 11.7937 96.4482 11.6952L98.0899 0.699537C97.1285 1.00993 96.2138 1.42213 95.3509 1.91578L94.0812 10.4168C94.0482 10.5395 94.0174 10.6782 93.9893 10.8521L93.1523 16.9267C93.0978 17.2382 93.0582 17.543 93.0301 17.8446C93.0042 18.1446 92.9905 18.4241 92.9905 18.6833C93.0119 19.746 93.362 20.5572 94.0383 21.1169C94.7152 21.675 95.675 21.9589 96.9226 21.9694C97.5131 21.9804 98.0684 21.9072 98.5901 21.7514C99.1102 21.5968 99.5813 21.3734 99.999 21.0828C100.418 20.7928 100.778 20.4444 101.08 20.0366C101.38 19.6272 101.611 19.1759 101.773 18.6833C101.858 18.4241 101.925 18.1374 101.974 17.8204C102.023 17.5034 102.068 17.2002 102.111 16.9096L102.949 10.8521C102.991 10.5725 103.013 10.3606 103.013 10.2159Z" fill="white"/>
<path d="M110.585 13.3816L110.521 13.8972C110.403 14.7139 109.865 15.1212 108.909 15.1212H108.072C107.836 15.1212 107.62 15.1129 107.427 15.0975C107.233 15.0816 107.03 15.0524 106.815 15.0084L107.218 12.1411H109.328C110.285 12.1411 110.703 12.555 110.585 13.3816ZM112.632 10.6503C112.073 10.0763 111.122 9.78901 109.78 9.78901H104.72C104.57 9.78901 104.439 9.83468 104.326 9.92549C104.213 10.0174 104.146 10.1374 104.124 10.2882L104.027 11.0773C104.049 11.2061 104.119 11.3327 104.237 11.4565C104.356 11.5803 104.52 11.6844 104.736 11.7702L103.779 18.6505L102.244 28.9296C102.339 28.9313 102.432 28.9434 102.528 28.9434C103.313 28.9434 104.079 28.8641 104.83 28.7441L106.525 17.3935V17.4095H106.558C106.664 17.4315 106.869 17.4441 107.17 17.4496C107.47 17.4551 107.867 17.4689 108.362 17.4909H108.7C110.031 17.4909 111.057 17.2114 111.778 16.6522C112.497 16.0942 112.937 15.2505 113.098 14.1234L113.211 13.2688C113.383 12.0982 113.19 11.2254 112.632 10.6503Z" fill="white"/>
<path d="M11.8807 19.2756L12.6534 14.0348C12.8608 12.6584 13.1437 10.9051 13.502 9.07575H13.4453C12.748 10.7157 11.9561 12.4697 11.2588 13.8648L8.65685 19.0676H6.54577L6.09285 13.9214C5.97948 12.5258 5.88537 10.773 5.81053 9.07575H5.772C5.41429 10.7537 5.03676 12.6584 4.71647 14.0348L3.45345 19.2756H0.964844L4.15127 6.56898H7.78953L8.18522 11.3954C8.26116 12.583 8.39324 14.0348 8.4114 15.4481H8.48735C8.9777 14.0348 9.65571 12.5451 10.2027 11.3954L12.5593 6.56898H16.2355L14.5201 19.2756H11.8807Z" fill="#337ABE"/>
<path d="M23.4549 11.98C23.2475 11.9415 22.9839 11.9035 22.7197 11.9035C20.9663 11.9035 19.6841 14.0537 19.6841 15.7691C19.6841 16.6733 20.0423 17.2957 20.7968 17.2957C21.6075 17.2957 22.6063 16.3717 23.0213 14.1098L23.4549 11.98ZM22.663 19.2758C22.6817 18.7282 22.7384 18.1069 22.7951 17.4476H22.7384C21.8903 18.9737 20.7214 19.4833 19.6466 19.4833C17.9874 19.4833 16.8564 18.2005 16.8564 16.2781C16.8564 13.1671 18.9114 9.84915 23.4549 9.84915C24.5484 9.84915 25.7361 10.0566 26.5087 10.3015L25.5286 15.1279C25.3024 16.3156 25.1324 18.1251 25.1703 19.2758H22.663Z" fill="#337ABE"/>
<path d="M27.1665 19.2756L28.2039 13.7893C28.4675 12.3942 28.5809 10.8484 28.675 10.0564H31.0315C30.9748 10.6783 30.9181 11.3007 30.862 11.9413H30.9181C31.5593 10.7157 32.5961 9.84895 33.8597 9.84895C34.0292 9.84895 34.1987 9.84895 34.3682 9.86766L33.8404 12.5071C33.7083 12.4884 33.5575 12.4884 33.4067 12.4884C31.6726 12.4884 30.862 14.0348 30.5224 15.8443L29.8818 19.2756H27.1665Z" fill="#337ABE"/>
<path d="M34.1418 19.2756L36.6679 5.88988H39.3639L37.856 13.9022H37.8935C38.1763 13.5439 38.4592 13.1862 38.7228 12.8466L41.0799 10.0564H44.4165L40.4954 13.846L43.0594 19.2756H40.0431L38.4218 15.3352L37.4031 16.2967L36.8374 19.2756H34.1418Z" fill="#337ABE"/>
<path d="M48.9962 11.8285C47.7338 11.8285 47.0172 12.8659 46.8285 13.7326C48.9401 13.7513 49.9951 13.4498 49.9951 12.6204C49.9951 12.1488 49.6187 11.8285 48.9962 11.8285ZM51.3907 18.7478C50.3159 19.2938 48.9775 19.4644 47.96 19.4644C45.32 19.4644 43.9629 17.9752 43.9629 15.5801C43.9629 12.7712 45.9986 9.84892 49.3358 9.84892C51.202 9.84892 52.5409 10.8857 52.5409 12.6017C52.5409 14.9582 50.2598 15.8068 46.5643 15.7122C46.5643 15.9763 46.659 16.3907 46.8472 16.6549C47.2054 17.126 47.8273 17.3709 48.6193 17.3709C49.6187 17.3709 50.4667 17.1447 51.202 16.787L51.3907 18.7478Z" fill="#337ABE"/>
<path d="M58.3468 7.47357L57.857 10.0563H59.8178L59.4221 12.1118H57.4618L56.8389 15.241C56.7635 15.6179 56.6881 16.089 56.6881 16.4093C56.6881 16.8622 56.8768 17.1831 57.4618 17.1831C57.7062 17.1831 57.9698 17.1831 58.2153 17.1445L57.895 19.2754C57.5554 19.4081 56.8768 19.4829 56.2924 19.4829C54.6711 19.4829 53.8979 18.6525 53.8979 17.5034C53.8979 16.9943 53.9546 16.4853 54.0867 15.7874L54.8032 12.1118H53.6343L54.0113 10.0563H55.1989L55.5764 8.1147L58.3468 7.47357Z" fill="#337ABE"/>
<path d="M59.6841 19.2756L61.4374 10.0564H64.1528L62.3994 19.2756H59.6841Z" fill="#337ABE"/>
<path d="M64.6802 19.2756L65.8485 13.0535C66.0753 11.8852 66.2261 10.8671 66.3389 10.0564H68.7515L68.5639 11.5831H68.6018C69.4686 10.3767 70.6183 9.84895 71.8433 9.84895C73.3523 9.84895 74.2004 10.773 74.2004 12.3568C74.2004 12.7712 74.1244 13.4685 74.049 13.9214L73.0315 19.2756H70.3167L71.2787 14.1663C71.3348 13.846 71.3722 13.4685 71.3722 13.1295C71.3722 12.4884 71.1466 12.036 70.4675 12.036C69.582 12.036 68.5452 13.1482 68.1676 15.1839L67.3944 19.2756H64.6802Z" fill="#337ABE"/>
<path d="M82.2305 12.0922C82.0236 11.9981 81.6273 11.9227 81.2504 11.9227C79.6104 11.9227 78.4409 13.7514 78.4409 15.5048C78.4409 16.4283 78.8553 17.1068 79.6852 17.1068C80.5713 17.1068 81.476 16.1267 81.76 14.5621L82.2305 12.0922ZM75.8962 20.5574C76.4047 20.859 77.5362 21.0659 78.3094 21.0659C79.6665 21.0659 80.6841 20.4633 81.0616 18.6158L81.2118 17.8426H81.175C80.4584 18.7661 79.6285 19.1997 78.535 19.1997C76.7063 19.1997 75.594 17.7111 75.5753 15.9192C75.5753 12.8654 77.7436 9.84902 81.76 9.84902C83.0599 9.84902 84.2095 10.0752 85.1715 10.4902L83.7764 18.0875C83.4567 19.7842 82.947 21.2932 81.8348 22.1781C80.8354 22.9706 79.4965 23.215 78.2714 23.215C77.0458 23.215 75.8962 22.9899 75.2732 22.6305L75.8962 20.5574Z" fill="#337ABE"/>
<path d="M63.9151 7.65565L63.2294 6.23303L62.3615 7.55164L61.5129 8.83777H64.4836L63.9151 7.65565Z" fill="#F04D44"/>
</g>
</svg>
