<svg width="20" height="20" viewBox="0 0 20 20" fill="none" xmlns="http://www.w3.org/2000/svg">
<path d="M14.4706 0.127391C14.6432 -0.0393976 14.9184 -0.0345892 15.0852 0.138068C15.2479 0.306527 15.2479 0.573561 15.0852 0.74198L5.83033 9.99773L15.0861 19.2526C15.2587 19.4194 15.2635 19.6945 15.0967 19.8672C14.93 20.0399 14.6548 20.0447 14.4821 19.8779C14.4785 19.8744 14.4749 19.8709 14.4714 19.8672L4.90881 10.3046C4.73913 10.1349 4.73913 9.85975 4.90881 9.68998L14.4706 0.127391Z" fill="#F44336"/>
<path d="M14.7789 19.9954C15.019 19.9958 15.2139 19.8015 15.2144 19.5615C15.2146 19.4457 15.1686 19.3347 15.0866 19.2529L5.8309 9.99805L15.0866 0.743205C15.2566 0.573237 15.2566 0.297687 15.0866 0.12772C14.9167 -0.0422477 14.6411 -0.0422477 14.4712 0.12772L4.90853 9.69035C4.73884 9.86007 4.73884 10.1352 4.90853 10.305L14.4712 19.8676C14.5527 19.9494 14.6634 19.9954 14.7789 19.9954Z" fill="#FFBB00"/>
</svg>
