<svg width="20" height="20" viewBox="0 0 20 20" fill="none" xmlns="http://www.w3.org/2000/svg">
<path d="M5.52942 0.127391C5.35676 -0.0393976 5.08158 -0.0345892 4.91479 0.138068C4.75211 0.306527 4.75211 0.573561 4.91479 0.74198L14.1697 9.99773L4.91393 19.2526C4.74127 19.4194 4.73651 19.6945 4.90325 19.8672C5.07004 20.0399 5.34519 20.0447 5.51788 19.8779C5.52151 19.8744 5.52506 19.8709 5.52856 19.8672L15.0912 10.3046C15.2609 10.1349 15.2609 9.85975 15.0912 9.68998L5.52942 0.127391Z" fill="#F44336"/>
<path d="M5.22122 19.9954C4.98116 19.9958 4.78622 19.8015 4.78577 19.5615C4.78556 19.4457 4.83153 19.3347 4.91348 19.2529L14.1692 9.99805L4.91348 0.743205C4.74351 0.573237 4.74351 0.297687 4.91348 0.12772C5.08344 -0.0422477 5.35899 -0.0422477 5.52896 0.12772L15.0916 9.69035C15.2613 9.86007 15.2613 10.1352 15.0916 10.305L5.52896 19.8676C5.44746 19.9494 5.3367 19.9954 5.22122 19.9954Z" fill="#FFBB00"/>
</svg>
