<svg width="20" height="21" viewBox="0 0 20 21" fill="none" xmlns="http://www.w3.org/2000/svg">
<path d="M19.8726 6.02942C20.0394 5.85676 20.0346 5.58158 19.8619 5.41479C19.6935 5.25211 19.4264 5.25211 19.258 5.41479L10.0023 14.6697L0.747385 5.41393C0.580597 5.24127 0.305454 5.23651 0.132755 5.40325C-0.0399017 5.57004 -0.0446682 5.84519 0.12208 6.01788C0.125584 6.02151 0.129129 6.02506 0.132755 6.02856L9.69539 15.5912C9.86511 15.7609 10.1403 15.7609 10.31 15.5912L19.8726 6.02942Z" fill="#F44336"/>
<path d="M0.00463676 5.72122C0.00418854 5.48116 0.198483 5.28622 0.43854 5.28577C0.55427 5.28556 0.665312 5.33153 0.747057 5.41348L10.0019 14.6692L19.2568 5.41348C19.4268 5.24351 19.7023 5.24351 19.8723 5.41348C20.0422 5.58344 20.0422 5.85899 19.8723 6.02896L10.3096 15.5916C10.1399 15.7613 9.86478 15.7613 9.69502 15.5916L0.132427 6.02896C0.050642 5.94746 0.00463676 5.8367 0.00463676 5.72122Z" fill="black"/>
</svg>
