<svg width="138" height="138" viewBox="0 0 138 138" fill="none" xmlns="http://www.w3.org/2000/svg">
<g clip-path="url(#clip0)">
<path d="M36 59L18 37L15.5 42L34 86L36 91L37 94L50.5 94.5V86L56.5 76.5L67.5 75L73 83H84.5V70L80.5 54.5H56.5L48.5 83H43L36 59Z" fill="#FFBB00"/>
<path d="M66.8394 86.0485C65.7209 86.0485 64.814 86.9553 64.814 88.0739C64.814 89.3397 63.7843 90.3694 62.5185 90.3694C61.2527 90.3694 60.223 89.3397 60.223 88.0739C60.223 86.8082 61.2527 85.7784 62.5185 85.7784C63.6371 85.7784 64.5439 84.8716 64.5439 83.753C64.5439 82.6344 63.6371 81.7275 62.5185 81.7275C59.0191 81.7275 56.1721 84.5745 56.1721 88.0739C56.1721 91.5733 59.0191 94.4203 62.5185 94.4203C66.0179 94.4203 68.8649 91.5733 68.8649 88.0739C68.8649 86.9553 67.958 86.0485 66.8394 86.0485Z" fill="black"/>
<path d="M103.568 90.3696C103.036 90.3696 102.512 90.5857 102.136 90.9638C101.758 91.3391 101.542 91.8631 101.542 92.3951C101.542 92.9271 101.758 93.451 102.136 93.8264C102.512 94.2045 103.036 94.4205 103.568 94.4205C104.1 94.4205 104.624 94.2045 104.999 93.8264C105.377 93.451 105.593 92.9271 105.593 92.3951C105.593 91.8604 105.377 91.3391 104.999 90.9638C104.624 90.5857 104.1 90.3696 103.568 90.3696Z" fill="black"/>
<path d="M135.975 99.0113H135.571L133.924 87.4817C133.631 85.433 131.849 83.888 129.78 83.888H129.493C125.901 83.888 122.824 86.1271 121.579 89.2819L109.71 82.6881L108.688 78.5992C107.895 75.4265 105.31 72.9622 102.103 72.3208L94.7906 70.8582V59.6173C94.7906 59.004 95.0293 58.4277 95.463 57.994L98.5182 54.9388C99.3092 54.1478 99.3092 52.8653 98.5182 52.0746C97.7272 51.2835 96.4447 51.2835 95.654 52.0746L92.5988 55.1297C91.4 56.3282 90.74 57.9221 90.74 59.6173V70.048L85.7777 69.0556L82.3854 55.4873C83.3012 55.2928 83.9885 54.4802 83.9885 53.5067C83.9885 52.3881 83.0817 51.4812 81.9631 51.4812H59.5987C56.5678 51.4812 53.948 53.6406 53.3693 56.6159L48.4842 81.7278H44.6215L38.5471 59.4553C38.4825 59.2184 38.3753 58.9953 38.2311 58.7969L22.3036 36.8964C20.9331 35.012 18.4253 34.4006 16.3402 35.4427C15.0596 36.0833 14.19 37.2462 13.8645 38.5549C13.8424 38.6243 13.8235 38.6953 13.8086 38.7682L4.48459 84.9013C1.81723 86.3388 0 89.1585 0 92.3948C0 97.0855 3.8162 100.902 8.50685 100.902H14.9502C14.9621 100.902 14.9739 100.902 14.9858 100.902C14.9974 100.902 15.0093 100.902 15.0212 100.902H19.3092C20.4278 100.902 21.3346 99.9948 21.3346 98.8763C21.3346 97.7577 20.4278 96.8508 19.3092 96.8508H16.7042L15.1268 87.3855C14.789 85.359 13.0525 83.888 10.9979 83.888H9.52767L21.195 58.9043L32.558 86.6804C32.5591 86.6828 32.5604 86.685 32.5615 86.6874C32.4616 87.1341 32.407 87.5975 32.407 88.0739V90.2344C32.407 93.7338 35.254 96.5808 38.7534 96.5808H41.0489V99.0113H38.7534C37.6348 99.0113 36.728 99.9181 36.728 101.037C36.728 102.155 37.6348 103.062 38.7534 103.062H47.3953C48.5139 103.062 49.4207 102.155 49.4207 101.037C49.4207 99.9181 48.5139 99.0113 47.3953 99.0113H45.0998V96.5808H49.5558C49.7548 96.5808 49.9468 96.5508 50.1286 96.4973C52.8291 100.457 57.375 103.062 62.5186 103.062C67.6621 103.062 72.2083 100.457 74.9086 96.4973C75.0904 96.5508 75.2821 96.5808 75.4814 96.5808H86.2837C89.7832 96.5808 92.6301 93.7338 92.6301 90.2344V90.0994H93.1516C92.9885 90.8393 92.9002 91.6068 92.9002 92.3948C92.9002 98.2767 97.6856 103.062 103.567 103.062C109.449 103.062 114.235 98.2767 114.235 92.3948C114.235 91.4399 114.107 90.5147 113.87 89.6332L120.986 93.5866V94.5553C120.986 99.246 124.802 103.062 129.493 103.062H133.779C133.79 103.062 133.801 103.062 133.812 103.062C133.822 103.062 133.833 103.062 133.844 103.062H135.975C137.093 103.062 138 102.155 138 101.037C138 99.9181 137.093 99.0113 135.975 99.0113ZM104.758 79.5817L104.861 79.9943L96.4493 75.3212L101.309 76.2931C102.988 76.6288 104.342 77.9197 104.758 79.5817ZM57.3453 57.389C57.5546 56.3129 58.5023 55.5318 59.5987 55.5318H78.2211L82.0978 71.0397V81.7278H76.0925C74.2783 77.8633 70.8626 74.8969 66.7045 73.6852V59.9881C66.7045 58.8695 65.7976 57.9626 64.679 57.9626C63.5605 57.9626 62.6536 58.8695 62.6536 59.9881V73.0894C62.6085 73.0892 62.564 73.0859 62.5186 73.0859C59.2403 73.0859 56.2068 74.1467 53.7368 75.9391L57.3453 57.389ZM11.1307 88.0518L12.5972 96.8511H8.50685C6.04985 96.8511 4.05088 94.8521 4.05088 92.3951C4.05088 89.9381 6.04985 87.9392 8.50685 87.9392H10.9976C11.064 87.9389 11.1199 87.9864 11.1307 88.0518ZM11.6954 69.6729L16.2937 46.9229L19.1075 53.8013L11.6954 69.6729ZM17.8187 39.9527C17.7693 39.8317 17.758 39.704 17.7772 39.5819L17.7796 39.5706C17.7807 39.5654 17.7809 39.5606 17.7817 39.5554C17.8225 39.3499 17.9535 39.1649 18.1523 39.0656C18.458 38.913 18.8263 39.0024 19.0275 39.2789L34.7366 60.879L40.4227 81.7275H38.7534C37.4898 81.7275 36.3124 82.1002 35.3223 82.7392L17.8187 39.9527ZM45.0998 92.5299V90.2344C45.0998 89.1158 44.1929 88.2089 43.0744 88.2089C41.9558 88.2089 41.0489 89.1158 41.0489 90.2344V92.5299H38.7534C37.4877 92.5299 36.4579 91.5001 36.4579 90.2344V88.0739C36.4579 86.8081 37.4877 85.7784 38.7534 85.7784H47.7061C47.5905 86.527 47.5303 87.2934 47.5303 88.0739C47.5303 89.6249 47.7672 91.1218 48.2066 92.5299H45.0998ZM62.5186 99.0113C56.4876 99.0113 51.5812 94.1049 51.5812 88.0739C51.5812 87.335 51.6557 86.6137 51.7962 85.9156L51.8081 85.8543C52.8367 80.8841 57.2481 77.1365 62.5186 77.1365C68.5495 77.1365 73.456 82.043 73.456 88.0739C73.456 94.1049 68.5495 99.0113 62.5186 99.0113ZM88.5792 90.2344C88.5792 91.5001 87.5495 92.5299 86.2837 92.5299H76.8306C77.27 91.1218 77.5068 89.6249 77.5068 88.0739C77.5068 87.2934 77.4466 86.527 77.331 85.7784H86.2837C87.5495 85.7784 88.5792 86.8081 88.5792 88.0739V90.2344ZM103.567 99.0113C99.9193 99.0113 96.9511 96.0431 96.9511 92.3948C96.9511 88.7466 99.9193 85.7784 103.567 85.7784C107.216 85.7784 110.184 88.7466 110.184 92.3948C110.184 96.0431 107.216 99.0113 103.567 99.0113ZM94.9969 86.0523C94.9732 86.0514 94.9497 86.0487 94.9256 86.0487H92.2969C91.4494 83.5399 89.0751 81.7278 86.2837 81.7278H86.1487V74.2326L100.469 82.1883C98.2554 82.8615 96.3448 84.2356 94.9969 86.0523ZM129.493 99.0113C127.036 99.0113 125.037 97.0123 125.037 94.5553V92.4205C125.037 92.4165 125.037 92.4124 125.037 92.4083V92.3946C125.037 89.9376 127.036 87.9386 129.493 87.9386H129.78C129.847 87.9386 129.904 87.9886 129.914 88.0545L131.479 99.011H129.493V99.0113Z" fill="black"/>
</g>
<defs>
<clipPath id="clip0">
<rect width="138" height="138" fill="white"/>
</clipPath>
</defs>
</svg>
