<svg width="80" height="100" viewBox="0 0 80 100" fill="none" xmlns="http://www.w3.org/2000/svg">
<path d="M78.5 1.5H1.5V80L3 86L11.5 91H24L34 94L40.5 97.5L45.5 94L57 91L71 89.5L77 86L78.5 80V1.5Z" fill="#FFBB00"/>
<path d="M34.5 34.5V39L27.5 40L25 44.5L26.5 53L27.5 57L31 51H41H53L54 39L53 33.5L54 29.5L57 29L59 35.5L61.5 25.5L57 23L49.5 24L46 29L44 35.5H42L41 31L43 25.5V22.5L45.5 21L47.5 18.5V15L45.5 12.5L43 11L40 11.5L37 13.5L36.5 16.5L37 19.5H35V23L31 25.5L27.5 22.5L20.5 26.5L23 29.5L30.5 32L34.5 34.5Z" fill="white"/>
<mask id="path-3-outside-1" maskUnits="userSpaceOnUse" x="0" y="0" width="80" height="100" fill="black">
<rect fill="white" width="80" height="100"/>
<path fill-rule="evenodd" clip-rule="evenodd" d="M77 78.0862C77 84.7751 74.3305 86.4842 73.5756 87.0439C71.6641 88.4565 68.8653 89.1097 63.9817 89.1097C53.3871 89.1097 45.4699 91.4038 40 96C34.5333 91.4054 26.6129 89.1097 16.0199 89.1097C11.1347 89.1097 8.34064 88.4565 6.42595 87.0439C5.67111 86.4827 3 84.7735 3 78.0862V3H76.9984L77 78.0862ZM18.7604 80.8464C21.3621 80.8464 25.5382 80.3391 26.9833 79.4687C25.9227 78.351 25.0465 74.5633 25.2356 73.7579C24.4177 74.3097 20.8074 74.9375 19.4033 74.9375C18.3333 74.9375 16.707 73.8911 16.707 72.5784C16.707 70.7884 18.0748 69.7579 18.0748 67.7539C18.0748 65.6326 16.7653 62.7408 13.6986 62.2382C15.2319 63.3305 15.6149 64.824 15.6149 66.8058C15.6149 69.7135 11.7871 70.0734 11.7871 74.3271C11.7871 78.6728 15.0964 80.8464 18.7604 80.8464ZM12.356 41.2962C12.356 45.4262 16.0199 46.0033 16.0199 49.1552C16.0199 51.2955 15.1673 53.8861 13.9634 55.0673C18.1993 54.6186 20.5364 51.1465 20.5364 48.085C20.5364 46.0541 18.7604 44.0818 18.7604 42.2696C18.7604 40.4797 19.75 39.511 20.8169 39.511C22.3722 39.511 23.2122 39.9232 23.5731 40.3465C23.7937 39.8725 24.3941 39.1114 24.7613 38.8451C23.9513 37.2533 22.1343 35.3793 18.0748 35.3793C14.0674 35.3793 12.356 38.3552 12.356 41.2962ZM18.4657 28.0499C21.6647 28.0499 19.46 31.6472 24.7298 31.6472C28.8176 31.6472 28.775 33.9635 32.7116 33.9635C32.7116 33.4245 33.1481 31.9849 33.1481 30.3646C33.1481 27.6741 32.7147 25.5068 32.4642 24.3542C29.656 23.5567 28.307 22.837 28.307 19.961C25.1048 20.9328 20.103 24.3273 18.4657 28.0499ZM66.1123 52.7842C66.2179 52.1897 66.2982 50.3633 66.1123 49.6419C65.6222 48.2705 63.4774 44.9284 61.4666 43.446C60.4344 43.4 58.3022 43.2352 57.2275 43.4333C57.2275 45.3993 55.5791 48.5242 55.5791 50.2142C59.2824 48.8603 60.3682 47.1084 61.1924 46.4948C62.7714 47.3192 64.1519 49.2075 64.7712 50.0906C64.8815 50.6851 64.8153 51.806 64.7712 52.3387C64.3914 52.3387 63.4286 53.0173 63.4286 53.6863C63.9108 54.7549 65.8444 55.5667 66.5567 55.9345C67.1476 55.0482 66.8325 53.0331 66.1123 52.7842ZM70.375 65.0967C70.2679 64.0773 68.8039 62.7899 66.6166 62.7899C67.414 63.4368 68.0553 64.1375 67.9198 65.0412L65.4678 64.4689L67.1413 66.4729C65.7561 68.1328 64.5679 68.3025 63.1512 68.3025C63.1512 66.8343 63.5657 66.373 63.427 64.9731L64.8595 64.6052L63.8036 63.7697C64.1298 63.5129 64.612 63.3083 65.1463 63.1783C64.7302 62.4047 64.0715 62.2683 62.9322 62.2683C61.7928 62.2683 61.4556 62.7725 61.4556 63.2988C61.4556 64.4847 61.7156 64.5862 61.7156 65.3425C61.7156 66.7043 59.8245 68.2819 57.5631 68.9382C56.6791 66.4015 55.5082 62.2715 55.3837 60.8588C55.5712 59.6793 54.9992 57.837 54.4902 57.2631C54.4918 55.5936 54.1656 51.5254 54.1656 49.8306C54.1656 46.2824 56.0409 46.0969 56.0409 40.4194C56.0409 38.1586 54.2507 35.8518 54.2507 33.6528C54.2507 31.9405 54.933 30.057 56.0409 30.057C56.6176 30.057 56.9344 32.8078 56.9344 33.6528C56.9344 34.4978 56.4868 35.5823 56.4868 36.3496C56.4868 36.8633 57.3283 37.7004 58.723 37.7004C60.1208 37.7004 60.9607 34.6342 60.9607 34.1015C60.9607 32.5287 63.1969 30.298 63.1969 28.2591C63.1969 25.4704 62.108 21.5195 55.5933 21.5195C48.0291 21.5195 43.5142 27.663 43.5142 34.1015C43.5142 35.2905 42.1731 34.9719 42.1731 33.8906C42.1731 31.6092 43.021 27.663 45.3044 25.8017C44.9404 24.5809 44.4188 23.5377 43.9034 22.6895C46.4044 21.9 48.2198 19.5503 48.2198 16.7758C48.2198 13.3529 45.4588 10.5768 42.0534 10.5768C38.6463 10.5768 35.887 13.3529 35.887 16.7758C35.887 17.8 36.136 18.7656 36.574 19.6153C36.2021 19.5884 35.6443 19.5694 35.2613 19.5535L47.3042 52.8207C47.8431 52.7557 48.4956 52.6558 48.8816 52.5258C49.1653 54.3808 51.6867 57.6975 52.2524 58.1589C52.2651 59.4066 52.648 60.9857 53.3493 61.3979C53.5273 62.5156 55.2482 66.7916 56.3529 69.3869C55.6201 69.5883 54.5501 69.7246 53.447 69.7864L54.3594 72.3104C54.4902 72.6672 54.476 73.0604 54.1246 73.1935C53.5321 73.4139 53.2043 72.4325 53.1633 72.3104C53.1207 72.1884 31.807 13.3069 31.807 13.3069C32.0324 13.0517 32.4657 12.6394 32.4657 11.9561C32.4657 11.2506 31.6557 9.88872 31.0932 9.88872C30.9088 9.88872 30.7433 9.90457 30.5857 9.92994L29.4968 6.9287C29.366 6.56881 28.9752 6.38649 28.6175 6.5165C28.2629 6.6465 28.0801 7.03969 28.2093 7.39958L29.3896 10.6577C29.1596 10.9985 29.0382 11.4345 29.0382 11.9545C29.0382 12.4317 29.7253 12.7694 29.7253 13.3323C29.4574 15.5773 29.5819 19.1508 29.7253 20.9091C29.8813 22.8259 32.6265 23.2492 33.8352 23.6646C33.9565 24.4271 34.5711 27.6725 34.5711 29.6448C34.5711 32.0785 33.6776 34.2648 33.6776 37.4039C29.0713 36.5525 23.5715 39.3572 23.5715 45.3343C23.5715 47.5428 24.6494 48.9142 24.6494 50.3379C24.6494 51.7616 25.6312 56.7637 22.4668 57.9179C21.0075 60.2833 21.236 66.7028 21.5717 67.8046C21.0469 68.331 20.6419 69.1237 20.675 70.0528C21.1699 70.7187 23.644 70.8265 24.7045 70.0528C24.725 69.2965 23.9623 68.0647 23.3619 67.8046C22.9821 66.4729 23.2626 61.5564 24.2539 59.7157C27.9903 58.0035 31.5502 55.47 32.212 51.6237C33.8257 52.1405 41.0637 52.8461 44.6898 52.9174L50.4875 68.9271C45.8985 67.4035 47.8353 60.6876 43.6923 60.6876C43.199 60.6876 42.7751 60.9571 42.6617 61.2489C43.7396 60.9793 44.3084 61.8402 44.1682 62.4126C43.24 61.7277 42.3843 62.1827 42.233 62.7661C42.7862 62.6678 43.6056 62.8343 44.0012 63.646C44.5259 64.7337 43.5394 65.5993 43.8058 66.7614C41.7161 65.807 39.4106 64.9968 36.5756 64.9968C28.3511 64.9968 26.5168 71.1927 26.5168 73.6485C26.5168 79.0771 30.5054 82.2162 34.5223 82.2162C41.3411 82.2162 41.7272 77.0572 41.7272 75.4417C41.7272 71.9553 39.3255 71.3972 37.7024 71.3972C36.2415 71.3972 35.0187 72.618 35.0187 73.6485C35.0187 74.6521 35.3717 75.4417 36.3597 75.4417C36.8372 75.4417 36.3975 76.3422 35.9153 76.3422C35.0297 76.3422 33.6776 75.6795 33.6776 73.6485C33.6776 71.9854 35.2015 70.0528 37.704 70.0528C40.4743 70.0528 43.0714 71.1705 43.0714 75.4401C43.0714 77.3315 42.3575 79.8286 41.3742 80.8401C42.8618 82.194 41.8911 85.6868 38.6321 86.3495C40.3751 86.9186 49.6302 86.4668 51.6252 84.9717C52.1343 85.2936 52.4305 86.3875 52.3107 87.0407C55.0733 85.4236 57.2369 80.374 57.0258 75.781C57.6246 76.0727 58.537 77.3537 58.6143 77.9942C59.7646 77.1111 60.2232 75.8333 60.2232 74.4825C60.8347 74.8503 61.3972 75.4607 61.569 76.3248C62.5161 75.6906 63.0015 74.7171 63.0456 73.6343C63.3986 73.6708 63.8178 73.9133 64.0179 74.5887C64.6325 74.3683 65.2093 73.387 65.3117 72.8796C66.8797 72.4056 68.848 70.6093 68.4351 69.371C69.9511 68.4261 70.613 67.2545 70.375 65.0967ZM37.5905 53.8782C35.8492 53.7704 33.8021 53.3851 33.2316 53.2345C32.8881 54.154 32.056 55.3859 31.4461 55.963C31.4461 58.1652 30.2138 58.7566 29.5252 59.7221C29.5252 60.8525 29.8372 64.0979 30.529 64.8748C30.8189 64.6116 31.6841 64.2247 32.2845 64.1787C31.807 62.9564 31.6747 61.3979 31.6747 60.1724C32.8566 59.3749 37.5905 57.5437 37.5905 53.8782ZM45.5234 16.8789C45.5234 15.1095 44.756 13.2102 42.1164 13.2102C39.9701 13.2102 38.6006 14.607 38.6006 16.7774C38.6006 18.2059 39.4532 18.3105 39.3161 18.8464C39.2641 19.0604 39.0198 19.7136 38.8071 19.9626C38.5817 19.8801 38.2776 19.8151 37.9261 19.7628C37.3242 18.9241 36.9664 17.892 36.9664 16.7774C36.9664 13.9522 39.2452 11.6596 42.0581 11.6596C44.8679 11.6596 47.1498 13.9506 47.1498 16.7774C47.1498 19.181 45.4982 21.1929 43.2731 21.7414C42.7609 21.0359 42.3244 20.565 42.1763 20.4128C43.9271 20.2511 45.5234 18.6482 45.5234 16.8789ZM45.7031 73.6153C45.1405 72.599 46.0293 71.7413 45.5676 70.7329C45.1358 69.7975 44.414 69.9244 44.009 70.0211C44.0532 69.5661 44.8899 68.878 45.8954 69.7119C46.0356 69.1396 45.4667 68.2787 44.3904 68.545C44.4991 68.2565 44.8773 67.8696 45.3706 67.8696C49.2142 67.8696 47.7313 73.0651 50.2495 73.6264C49.6034 74.706 46.7416 74.324 45.7031 73.6153Z"/>
</mask>
<path fill-rule="evenodd" clip-rule="evenodd" d="M77 78.0862C77 84.7751 74.3305 86.4842 73.5756 87.0439C71.6641 88.4565 68.8653 89.1097 63.9817 89.1097C53.3871 89.1097 45.4699 91.4038 40 96C34.5333 91.4054 26.6129 89.1097 16.0199 89.1097C11.1347 89.1097 8.34064 88.4565 6.42595 87.0439C5.67111 86.4827 3 84.7735 3 78.0862V3H76.9984L77 78.0862ZM18.7604 80.8464C21.3621 80.8464 25.5382 80.3391 26.9833 79.4687C25.9227 78.351 25.0465 74.5633 25.2356 73.7579C24.4177 74.3097 20.8074 74.9375 19.4033 74.9375C18.3333 74.9375 16.707 73.8911 16.707 72.5784C16.707 70.7884 18.0748 69.7579 18.0748 67.7539C18.0748 65.6326 16.7653 62.7408 13.6986 62.2382C15.2319 63.3305 15.6149 64.824 15.6149 66.8058C15.6149 69.7135 11.7871 70.0734 11.7871 74.3271C11.7871 78.6728 15.0964 80.8464 18.7604 80.8464ZM12.356 41.2962C12.356 45.4262 16.0199 46.0033 16.0199 49.1552C16.0199 51.2955 15.1673 53.8861 13.9634 55.0673C18.1993 54.6186 20.5364 51.1465 20.5364 48.085C20.5364 46.0541 18.7604 44.0818 18.7604 42.2696C18.7604 40.4797 19.75 39.511 20.8169 39.511C22.3722 39.511 23.2122 39.9232 23.5731 40.3465C23.7937 39.8725 24.3941 39.1114 24.7613 38.8451C23.9513 37.2533 22.1343 35.3793 18.0748 35.3793C14.0674 35.3793 12.356 38.3552 12.356 41.2962ZM18.4657 28.0499C21.6647 28.0499 19.46 31.6472 24.7298 31.6472C28.8176 31.6472 28.775 33.9635 32.7116 33.9635C32.7116 33.4245 33.1481 31.9849 33.1481 30.3646C33.1481 27.6741 32.7147 25.5068 32.4642 24.3542C29.656 23.5567 28.307 22.837 28.307 19.961C25.1048 20.9328 20.103 24.3273 18.4657 28.0499ZM66.1123 52.7842C66.2179 52.1897 66.2982 50.3633 66.1123 49.6419C65.6222 48.2705 63.4774 44.9284 61.4666 43.446C60.4344 43.4 58.3022 43.2352 57.2275 43.4333C57.2275 45.3993 55.5791 48.5242 55.5791 50.2142C59.2824 48.8603 60.3682 47.1084 61.1924 46.4948C62.7714 47.3192 64.1519 49.2075 64.7712 50.0906C64.8815 50.6851 64.8153 51.806 64.7712 52.3387C64.3914 52.3387 63.4286 53.0173 63.4286 53.6863C63.9108 54.7549 65.8444 55.5667 66.5567 55.9345C67.1476 55.0482 66.8325 53.0331 66.1123 52.7842ZM70.375 65.0967C70.2679 64.0773 68.8039 62.7899 66.6166 62.7899C67.414 63.4368 68.0553 64.1375 67.9198 65.0412L65.4678 64.4689L67.1413 66.4729C65.7561 68.1328 64.5679 68.3025 63.1512 68.3025C63.1512 66.8343 63.5657 66.373 63.427 64.9731L64.8595 64.6052L63.8036 63.7697C64.1298 63.5129 64.612 63.3083 65.1463 63.1783C64.7302 62.4047 64.0715 62.2683 62.9322 62.2683C61.7928 62.2683 61.4556 62.7725 61.4556 63.2988C61.4556 64.4847 61.7156 64.5862 61.7156 65.3425C61.7156 66.7043 59.8245 68.2819 57.5631 68.9382C56.6791 66.4015 55.5082 62.2715 55.3837 60.8588C55.5712 59.6793 54.9992 57.837 54.4902 57.2631C54.4918 55.5936 54.1656 51.5254 54.1656 49.8306C54.1656 46.2824 56.0409 46.0969 56.0409 40.4194C56.0409 38.1586 54.2507 35.8518 54.2507 33.6528C54.2507 31.9405 54.933 30.057 56.0409 30.057C56.6176 30.057 56.9344 32.8078 56.9344 33.6528C56.9344 34.4978 56.4868 35.5823 56.4868 36.3496C56.4868 36.8633 57.3283 37.7004 58.723 37.7004C60.1208 37.7004 60.9607 34.6342 60.9607 34.1015C60.9607 32.5287 63.1969 30.298 63.1969 28.2591C63.1969 25.4704 62.108 21.5195 55.5933 21.5195C48.0291 21.5195 43.5142 27.663 43.5142 34.1015C43.5142 35.2905 42.1731 34.9719 42.1731 33.8906C42.1731 31.6092 43.021 27.663 45.3044 25.8017C44.9404 24.5809 44.4188 23.5377 43.9034 22.6895C46.4044 21.9 48.2198 19.5503 48.2198 16.7758C48.2198 13.3529 45.4588 10.5768 42.0534 10.5768C38.6463 10.5768 35.887 13.3529 35.887 16.7758C35.887 17.8 36.136 18.7656 36.574 19.6153C36.2021 19.5884 35.6443 19.5694 35.2613 19.5535L47.3042 52.8207C47.8431 52.7557 48.4956 52.6558 48.8816 52.5258C49.1653 54.3808 51.6867 57.6975 52.2524 58.1589C52.2651 59.4066 52.648 60.9857 53.3493 61.3979C53.5273 62.5156 55.2482 66.7916 56.3529 69.3869C55.6201 69.5883 54.5501 69.7246 53.447 69.7864L54.3594 72.3104C54.4902 72.6672 54.476 73.0604 54.1246 73.1935C53.5321 73.4139 53.2043 72.4325 53.1633 72.3104C53.1207 72.1884 31.807 13.3069 31.807 13.3069C32.0324 13.0517 32.4657 12.6394 32.4657 11.9561C32.4657 11.2506 31.6557 9.88872 31.0932 9.88872C30.9088 9.88872 30.7433 9.90457 30.5857 9.92994L29.4968 6.9287C29.366 6.56881 28.9752 6.38649 28.6175 6.5165C28.2629 6.6465 28.0801 7.03969 28.2093 7.39958L29.3896 10.6577C29.1596 10.9985 29.0382 11.4345 29.0382 11.9545C29.0382 12.4317 29.7253 12.7694 29.7253 13.3323C29.4574 15.5773 29.5819 19.1508 29.7253 20.9091C29.8813 22.8259 32.6265 23.2492 33.8352 23.6646C33.9565 24.4271 34.5711 27.6725 34.5711 29.6448C34.5711 32.0785 33.6776 34.2648 33.6776 37.4039C29.0713 36.5525 23.5715 39.3572 23.5715 45.3343C23.5715 47.5428 24.6494 48.9142 24.6494 50.3379C24.6494 51.7616 25.6312 56.7637 22.4668 57.9179C21.0075 60.2833 21.236 66.7028 21.5717 67.8046C21.0469 68.331 20.6419 69.1237 20.675 70.0528C21.1699 70.7187 23.644 70.8265 24.7045 70.0528C24.725 69.2965 23.9623 68.0647 23.3619 67.8046C22.9821 66.4729 23.2626 61.5564 24.2539 59.7157C27.9903 58.0035 31.5502 55.47 32.212 51.6237C33.8257 52.1405 41.0637 52.8461 44.6898 52.9174L50.4875 68.9271C45.8985 67.4035 47.8353 60.6876 43.6923 60.6876C43.199 60.6876 42.7751 60.9571 42.6617 61.2489C43.7396 60.9793 44.3084 61.8402 44.1682 62.4126C43.24 61.7277 42.3843 62.1827 42.233 62.7661C42.7862 62.6678 43.6056 62.8343 44.0012 63.646C44.5259 64.7337 43.5394 65.5993 43.8058 66.7614C41.7161 65.807 39.4106 64.9968 36.5756 64.9968C28.3511 64.9968 26.5168 71.1927 26.5168 73.6485C26.5168 79.0771 30.5054 82.2162 34.5223 82.2162C41.3411 82.2162 41.7272 77.0572 41.7272 75.4417C41.7272 71.9553 39.3255 71.3972 37.7024 71.3972C36.2415 71.3972 35.0187 72.618 35.0187 73.6485C35.0187 74.6521 35.3717 75.4417 36.3597 75.4417C36.8372 75.4417 36.3975 76.3422 35.9153 76.3422C35.0297 76.3422 33.6776 75.6795 33.6776 73.6485C33.6776 71.9854 35.2015 70.0528 37.704 70.0528C40.4743 70.0528 43.0714 71.1705 43.0714 75.4401C43.0714 77.3315 42.3575 79.8286 41.3742 80.8401C42.8618 82.194 41.8911 85.6868 38.6321 86.3495C40.3751 86.9186 49.6302 86.4668 51.6252 84.9717C52.1343 85.2936 52.4305 86.3875 52.3107 87.0407C55.0733 85.4236 57.2369 80.374 57.0258 75.781C57.6246 76.0727 58.537 77.3537 58.6143 77.9942C59.7646 77.1111 60.2232 75.8333 60.2232 74.4825C60.8347 74.8503 61.3972 75.4607 61.569 76.3248C62.5161 75.6906 63.0015 74.7171 63.0456 73.6343C63.3986 73.6708 63.8178 73.9133 64.0179 74.5887C64.6325 74.3683 65.2093 73.387 65.3117 72.8796C66.8797 72.4056 68.848 70.6093 68.4351 69.371C69.9511 68.4261 70.613 67.2545 70.375 65.0967ZM37.5905 53.8782C35.8492 53.7704 33.8021 53.3851 33.2316 53.2345C32.8881 54.154 32.056 55.3859 31.4461 55.963C31.4461 58.1652 30.2138 58.7566 29.5252 59.7221C29.5252 60.8525 29.8372 64.0979 30.529 64.8748C30.8189 64.6116 31.6841 64.2247 32.2845 64.1787C31.807 62.9564 31.6747 61.3979 31.6747 60.1724C32.8566 59.3749 37.5905 57.5437 37.5905 53.8782ZM45.5234 16.8789C45.5234 15.1095 44.756 13.2102 42.1164 13.2102C39.9701 13.2102 38.6006 14.607 38.6006 16.7774C38.6006 18.2059 39.4532 18.3105 39.3161 18.8464C39.2641 19.0604 39.0198 19.7136 38.8071 19.9626C38.5817 19.8801 38.2776 19.8151 37.9261 19.7628C37.3242 18.9241 36.9664 17.892 36.9664 16.7774C36.9664 13.9522 39.2452 11.6596 42.0581 11.6596C44.8679 11.6596 47.1498 13.9506 47.1498 16.7774C47.1498 19.181 45.4982 21.1929 43.2731 21.7414C42.7609 21.0359 42.3244 20.565 42.1763 20.4128C43.9271 20.2511 45.5234 18.6482 45.5234 16.8789ZM45.7031 73.6153C45.1405 72.599 46.0293 71.7413 45.5676 70.7329C45.1358 69.7975 44.414 69.9244 44.009 70.0211C44.0532 69.5661 44.8899 68.878 45.8954 69.7119C46.0356 69.1396 45.4667 68.2787 44.3904 68.545C44.4991 68.2565 44.8773 67.8696 45.3706 67.8696C49.2142 67.8696 47.7313 73.0651 50.2495 73.6264C49.6034 74.706 46.7416 74.324 45.7031 73.6153Z" stroke="black" stroke-width="6" mask="url(#path-3-outside-1)"/>
</svg>
