<svg width="110" height="110" viewBox="0 0 110 110" fill="none" xmlns="http://www.w3.org/2000/svg">
<path d="M28 41.5L36.5 31.5V27.5V23.5L25.5 14L14 25.5L20 34L14 45L4 47V62.5L14 64L20 76.5L14 83.5L23.5 94.5V72.5L28 64L25.5 55.5L28 41.5Z" fill="#FFBB00"/>
<path d="M82.5 41.5L74 31.5V27.5V23.5L85 14L96.5 25.5L90.5 34L96.5 45L106.5 47V62.5L96.5 64L90.5 76.5L96.5 83.5L87 94.5V72.5L82.5 64L85 55.5L82.5 41.5Z" fill="#FFBB00"/>
<path d="M78.8219 59.8641L63.5938 55.4297V52.6797C66.2013 51.1696 68.3672 49.002 69.8751 46.3932C71.3831 43.7844 72.1804 40.8257 72.1875 37.8125V32.3469C73.1974 31.9932 74.0716 31.3326 74.6876 30.4576C75.3036 29.5826 75.6307 28.5369 75.6231 27.4668C75.6155 26.3968 75.2737 25.3558 74.6453 24.4896C74.017 23.6234 73.1336 22.9753 72.1187 22.6359C71.859 19.2278 70.579 15.9769 68.4452 13.3067C66.3115 10.6365 63.4231 8.67079 60.1562 7.66563V6.875C60.1535 5.96415 59.7905 5.09139 59.1464 4.44733C58.5024 3.80326 57.6296 3.44022 56.7188 3.4375H53.2812C52.3704 3.44022 51.4976 3.80326 50.8536 4.44733C50.2095 5.09139 49.8465 5.96415 49.8438 6.875V7.66563C46.5769 8.67079 43.6885 10.6365 41.5548 13.3067C39.421 15.9769 38.141 19.2278 37.8813 22.6359C36.8664 22.9753 35.983 23.6234 35.3547 24.4896C34.7263 25.3558 34.3845 26.3968 34.3769 27.4668C34.3693 28.5369 34.6964 29.5826 35.3124 30.4576C35.9284 31.3326 36.8026 31.9932 37.8125 32.3469V37.8125C37.8196 40.8257 38.6169 43.7844 40.1249 46.3932C41.6328 49.002 43.7987 51.1696 46.4062 52.6797V55.4297L31.1953 59.8641C28.6556 60.5662 26.4155 62.0804 24.8172 64.1753C23.2189 66.2702 22.3502 68.8306 22.3438 71.4656V104.844C22.3438 105.3 22.5248 105.737 22.8472 106.059C23.1695 106.381 23.6067 106.562 24.0625 106.562H85.9375C86.3933 106.562 86.8305 106.381 87.1528 106.059C87.4752 105.737 87.6562 105.3 87.6562 104.844V71.4656C87.65 68.8331 86.7835 66.2747 85.1886 64.1803C83.5937 62.0859 81.358 60.5702 78.8219 59.8641V59.8641ZM67.0312 60.0187V62.1672C65.9166 61.7891 64.7084 61.7891 63.5938 62.1672V59.0047L67.0312 60.0187ZM60.1562 11.3094C62.4115 12.2451 64.3813 13.7569 65.8685 15.6935C67.3556 17.6301 68.3078 19.9234 68.6297 22.3438H60.1562V11.3094ZM53.2812 6.875H56.7188V22.3438H53.2812V6.875ZM49.8438 11.3094V22.3438H41.3703C41.6922 19.9234 42.6444 17.6301 44.1315 15.6935C45.6187 13.7569 47.5885 12.2451 49.8438 11.3094V11.3094ZM37.8125 27.5C37.8125 27.0442 37.9936 26.607 38.3159 26.2847C38.6382 25.9623 39.0754 25.7812 39.5312 25.7812H70.4688C70.9246 25.7812 71.3618 25.9623 71.6841 26.2847C72.0064 26.607 72.1875 27.0442 72.1875 27.5C72.1875 27.9558 72.0064 28.393 71.6841 28.7153C71.3618 29.0377 70.9246 29.2188 70.4688 29.2188H39.5312C39.0754 29.2188 38.6382 29.0377 38.3159 28.7153C37.9936 28.393 37.8125 27.9558 37.8125 27.5ZM41.25 37.8125V32.6562H68.75V37.8125C68.75 41.4592 67.3013 44.9566 64.7227 47.5352C62.1441 50.1138 58.6467 51.5625 55 51.5625C51.3533 51.5625 47.8559 50.1138 45.2773 47.5352C42.6987 44.9566 41.25 41.4592 41.25 37.8125ZM60.1562 54.2094V61.0156L55 64.8828L49.8438 61.0156V54.2094C53.2004 55.2635 56.7996 55.2635 60.1562 54.2094V54.2094ZM42.9688 60.0187L46.4062 59.0047V62.1672C45.2916 61.7891 44.0834 61.7891 42.9688 62.1672V60.0187ZM84.2188 103.125H75.625V77.3438H72.1875V103.125H37.8125V77.3438H34.375V103.125H25.7812V71.4656C25.7906 69.5776 26.417 67.7444 27.5652 66.2456C28.7134 64.7468 30.3202 63.6646 32.1406 63.1641L39.5312 61.0156V67.0312C39.5312 67.4871 39.7123 67.9243 40.0347 68.2466C40.357 68.5689 40.7942 68.75 41.25 68.75C41.7058 68.75 42.143 68.5689 42.4653 68.2466C42.7877 67.9243 42.9688 67.4871 42.9688 67.0312C42.9688 66.5754 43.1498 66.1382 43.4722 65.8159C43.7945 65.4936 44.2317 65.3125 44.6875 65.3125C45.1433 65.3125 45.5805 65.4936 45.9028 65.8159C46.2252 66.1382 46.4062 66.5754 46.4062 67.0312C46.4062 67.4871 46.5873 67.9243 46.9097 68.2466C47.232 68.5689 47.6692 68.75 48.125 68.75C48.5808 68.75 49.018 68.5689 49.3403 68.2466C49.6627 67.9243 49.8438 67.4871 49.8438 67.0312V65.3125L53.9687 68.4062C54.2663 68.6294 54.6281 68.75 55 68.75C55.3719 68.75 55.7337 68.6294 56.0312 68.4062L60.1562 65.3125V67.0312C60.1562 67.4871 60.3373 67.9243 60.6597 68.2466C60.982 68.5689 61.4192 68.75 61.875 68.75C62.3308 68.75 62.768 68.5689 63.0903 68.2466C63.4127 67.9243 63.5938 67.4871 63.5938 67.0312C63.5938 66.5754 63.7748 66.1382 64.0972 65.8159C64.4195 65.4936 64.8567 65.3125 65.3125 65.3125C65.7683 65.3125 66.2055 65.4936 66.5278 65.8159C66.8502 66.1382 67.0312 66.5754 67.0312 67.0312C67.0312 67.4871 67.2123 67.9243 67.5347 68.2466C67.857 68.5689 68.2942 68.75 68.75 68.75C69.2058 68.75 69.643 68.5689 69.9653 68.2466C70.2877 67.9243 70.4688 67.4871 70.4688 67.0312V61.0156L77.8766 63.1641C79.6934 63.6686 81.2959 64.7523 82.4406 66.2507C83.5853 67.749 84.2096 69.5801 84.2188 71.4656V103.125Z" fill="black"/>
<path d="M46.4062 34.375H49.8438V37.8125H46.4062V34.375Z" fill="black"/>
<path d="M60.1562 34.375H63.5938V37.8125H60.1562V34.375Z" fill="black"/>
<path d="M33.1617 33.0879C30.268 35.9547 27.9734 39.3683 26.4113 43.1301C24.8491 46.892 24.0508 50.927 24.0626 55.0002C24.0625 56.8298 24.2229 58.6558 24.5422 60.4573L27.9264 59.8557C27.6421 58.2529 27.4995 56.6281 27.5001 55.0002C27.4895 51.3794 28.1992 47.7925 29.5878 44.4485C30.9764 41.1044 33.0162 38.07 35.5886 35.5216L33.1617 33.0879Z" fill="black"/>
<path d="M74.4785 35.5885C77.0303 38.1348 79.0528 41.1609 80.4295 44.4925C81.8062 47.8241 82.5099 51.3952 82.4999 55.0001C82.5006 56.6279 82.3579 58.2527 82.0737 59.8555L85.4579 60.4571C85.7772 58.6556 85.9376 56.8296 85.9374 55.0001C85.9484 50.9447 85.1567 46.9272 83.608 43.1791C82.0593 39.4311 79.7843 36.0265 76.914 33.1616L74.4785 35.5885Z" fill="black"/>
<path d="M105.016 44.696L96.4949 43.8452C95.5315 40.2398 94.0984 36.7766 92.2324 33.5447L97.6516 26.919C97.9216 26.5893 98.0594 26.1711 98.0385 25.7456C98.0175 25.32 97.8392 24.9174 97.5382 24.6158L85.3849 12.4626C85.0835 12.1608 84.6807 11.9819 84.2547 11.9606C83.8287 11.9394 83.4101 12.0772 83.0801 12.3474L75.5176 18.5349L77.6952 21.1972L84.0546 15.9963L94.0062 25.953L88.8069 32.3124C88.581 32.589 88.4468 32.9292 88.4231 33.2856C88.3994 33.6419 88.4873 33.9969 88.6746 34.301C90.8733 37.8682 92.4859 41.7647 93.451 45.8424C93.5337 46.1904 93.7228 46.5039 93.9921 46.7392C94.2613 46.9746 94.5973 47.1201 94.9532 47.1555L103.126 47.9616V62.0468L94.9532 62.8632C94.5973 62.8986 94.2613 63.0441 93.9921 63.2795C93.7228 63.5148 93.5337 63.8283 93.451 64.1763C92.4859 68.254 90.8733 72.1506 88.6746 75.7177C88.4873 76.0218 88.3994 76.3768 88.4231 76.7331C88.4468 77.0895 88.581 77.4297 88.8069 77.7063L94.0062 84.0657L88.1813 89.8922L90.6116 92.3226L97.5382 85.3977C97.8392 85.0962 98.0175 84.6936 98.0385 84.268C98.0594 83.8424 97.9216 83.4243 97.6516 83.0946L92.2324 76.4688C94.0984 73.2369 95.5315 69.7738 96.4949 66.1683L105.016 65.309C105.441 65.2663 105.835 65.067 106.121 64.7499C106.407 64.4328 106.565 64.0206 106.563 63.5936V46.4061C106.563 45.9801 106.405 45.5692 106.119 45.2532C105.833 44.9372 105.44 44.7386 105.016 44.696V44.696Z" fill="black"/>
<path d="M21.1939 77.698C21.4199 77.4213 21.554 77.0812 21.5777 76.7248C21.6015 76.3684 21.5136 76.0135 21.3262 75.7094C19.1276 72.1422 17.515 68.2456 16.5498 64.168C16.4672 63.82 16.2781 63.5065 16.0088 63.2711C15.7395 63.0357 15.4035 62.8902 15.0477 62.8548L6.875 62.047V47.9705L15.0477 47.1541C15.4035 47.1187 15.7395 46.9732 16.0088 46.7378C16.2781 46.5024 16.4672 46.1889 16.5498 45.8409C17.515 41.7633 19.1276 37.8667 21.3262 34.2995C21.5136 33.9954 21.6015 33.6405 21.5777 33.2841C21.554 32.9277 21.4199 32.5876 21.1939 32.3109L15.9947 25.9533L25.9531 15.9931L32.3125 21.1941L34.4902 18.5334L26.9277 12.3459C26.5977 12.0757 26.179 11.9379 25.753 11.9592C25.3271 11.9805 24.9242 12.1594 24.6228 12.4611L12.4627 24.6161C12.1616 24.9176 11.9834 25.3202 11.9624 25.7458C11.9414 26.1714 12.0793 26.5895 12.3492 26.9192L17.7684 33.545C15.9024 36.7769 14.4693 40.24 13.5059 43.8455L4.98438 44.6962C4.56042 44.7389 4.16741 44.9374 3.88158 45.2534C3.59576 45.5694 3.43749 45.9803 3.4375 46.4064V63.5939C3.43749 64.02 3.59576 64.4309 3.88158 64.7469C4.16741 65.0629 4.56042 65.2614 4.98438 65.3041L13.5059 66.1634C14.4693 69.7689 15.9024 73.232 17.7684 76.4639L12.3492 83.0811C12.0793 83.4108 11.9414 83.8289 11.9624 84.2545C11.9834 84.6801 12.1616 85.0827 12.4627 85.3842L19.4098 92.3297L21.8402 89.8994L15.9964 84.0556L21.1939 77.698Z" fill="black"/>
<path d="M24.6113 27.0469L27.042 24.6162L29.4727 27.0469L27.042 29.4776L24.6113 27.0469Z" fill="black"/>
<path d="M13.75 53.2812H17.1875V56.7188H13.75V53.2812Z" fill="black"/>
<path d="M92.8125 53.2812H96.25V56.7188H92.8125V53.2812Z" fill="black"/>
<path d="M80.502 27.04L82.9326 24.6094L85.3633 27.04L82.9326 29.4707L80.502 27.04Z" fill="black"/>
</svg>
