<svg width="88" height="90" viewBox="0 0 88 90" fill="none" xmlns="http://www.w3.org/2000/svg">
<path d="M51 1.5L2 43.5L36.5 76.5L84.5 35.5V1.5H51Z" fill="#FFBB00"/>
<path d="M71.1459 24.8113C75.6327 24.8113 79.2783 21.1979 79.2783 16.7507C79.2783 12.3034 75.6327 8.69004 71.1459 8.69004C66.659 8.69004 63.0134 12.3034 63.0134 16.7507C63.0134 21.1979 66.659 24.8113 71.1459 24.8113ZM71.1459 11.4696C74.081 11.4696 76.474 13.8414 76.474 16.7507C76.474 19.6599 74.081 22.0318 71.1459 22.0318C68.2107 22.0318 65.8177 19.6599 65.8177 16.7507C65.8177 13.8414 68.2107 11.4696 71.1459 11.4696Z" fill="black"/>
<path d="M85.5976 1H50.7497C50.4131 1 50.0953 1.11118 49.8336 1.33354L1.48764 42.5818C1.18852 42.8227 1.02026 43.1933 1.00156 43.5824C0.982869 43.9716 1.13243 44.3422 1.41286 44.6201L36.2608 78.549C36.5413 78.8084 36.8965 78.9381 37.2517 78.9381C37.5695 78.9381 37.906 78.8269 38.1677 78.6231L86.5137 37.5045C86.8128 37.2451 86.9998 36.856 86.9998 36.4483V2.38977C86.9998 1.63003 86.3641 1 85.5976 1ZM84.2142 35.7997L37.3265 75.6582L4.47888 43.6936L51.2918 3.76101H84.2142V35.7997Z" fill="black"/>
<path d="M84.6821 45.454L37.327 85.7201L3.39511 52.1249C2.85295 51.5875 1.95558 51.5875 1.41341 52.1249C0.87125 52.6622 0.87125 53.5517 1.41341 54.0891L36.2614 88.5923C36.5418 88.8703 36.897 89 37.2522 89C37.5701 89 37.9066 88.8888 38.1683 88.685L86.5143 47.5664C87.0938 47.0661 87.1686 46.1767 86.6638 45.6022C86.159 45.0278 85.2617 44.9537 84.6821 45.454Z" fill="black"/>
<path d="M71.1459 24.8113C75.6327 24.8113 79.2783 21.1979 79.2783 16.7507C79.2783 12.3034 75.6327 8.69004 71.1459 8.69004C66.659 8.69004 63.0134 12.3034 63.0134 16.7507C63.0134 21.1979 66.659 24.8113 71.1459 24.8113ZM71.1459 11.4696C74.081 11.4696 76.474 13.8414 76.474 16.7507C76.474 19.6599 74.081 22.0318 71.1459 22.0318C68.2107 22.0318 65.8177 19.6599 65.8177 16.7507C65.8177 13.8414 68.2107 11.4696 71.1459 11.4696Z" stroke="black"/>
<path d="M85.5976 1H50.7497C50.4131 1 50.0953 1.11118 49.8336 1.33354L1.48764 42.5818C1.18852 42.8227 1.02026 43.1933 1.00156 43.5824C0.982869 43.9716 1.13243 44.3422 1.41286 44.6201L36.2608 78.549C36.5413 78.8084 36.8965 78.9381 37.2517 78.9381C37.5695 78.9381 37.906 78.8269 38.1677 78.6231L86.5137 37.5045C86.8128 37.2451 86.9998 36.856 86.9998 36.4483V2.38977C86.9998 1.63003 86.3641 1 85.5976 1ZM84.2142 35.7997L37.3265 75.6582L4.47888 43.6936L51.2918 3.76101H84.2142V35.7997Z" stroke="black"/>
<path d="M84.6821 45.454L37.327 85.7201L3.39511 52.1249C2.85295 51.5875 1.95558 51.5875 1.41341 52.1249C0.87125 52.6622 0.87125 53.5517 1.41341 54.0891L36.2614 88.5923C36.5418 88.8703 36.897 89 37.2522 89C37.5701 89 37.9066 88.8888 38.1683 88.685L86.5143 47.5664C87.0938 47.0661 87.1686 46.1767 86.6638 45.6022C86.159 45.0278 85.2617 44.9537 84.6821 45.454Z" stroke="black"/>
</svg>
