<svg width="88" height="88" viewBox="0 0 88 88" fill="none" xmlns="http://www.w3.org/2000/svg">
<circle cx="47" cy="45" r="40" fill="#FFBB00"/>
<path d="M68.7757 22.5577L83.8469 23.6556L84.9448 8.58462L79.78 8.20839L79.3481 14.1379C71.0744 5.18649 59.424 0 47.0564 0C22.7946 0 3.05652 19.7384 3.05652 43.9999C3.05652 68.2614 22.795 87.9998 47.0566 87.9998C61.7273 87.9998 75.3893 80.7022 83.6021 68.4785L79.3036 65.5905C72.0546 76.3799 59.9996 82.8212 47.0566 82.8212C25.6503 82.8214 8.2351 65.406 8.2351 43.9999C8.2351 22.5938 25.6501 5.17858 47.0564 5.17858C58.065 5.17858 68.4292 9.84086 75.7423 17.8727L69.152 17.3927L68.7757 22.5577Z" fill="black"/>
<path d="M25.4433 48.8628C25.4433 47.198 27.1083 46.1176 29.4738 44.92C32.1898 43.5474 34.0881 41.9703 34.0881 38.5823C34.0881 34.581 31.5179 32.0986 26.9036 32.0986C22.9316 32.0986 19.9818 33.997 18.6967 35.4572L21.5882 38.5532C22.6394 37.4726 24.392 36.246 26.2611 36.246C27.7796 36.246 28.7727 37.0638 28.7727 38.6409C28.7727 41.094 26.3486 42.1454 23.8662 43.2552C19.6606 45.1536 18.6383 47.6653 18.6383 53.0684H34.1175V48.8628H25.4433V48.8628Z" fill="black"/>
<path d="M49.0715 44.5113V32.3032H45.859L36.2209 44.5113V48.6877H44.3986V53.0394H49.0715V48.6877H51.6417V44.5113H49.0715ZM44.9243 44.5111H40.8647L44.9243 39.3124V44.5111Z" fill="black"/>
<path d="M59.1167 47.3738C61.3655 47.3738 63.3223 46.3224 64.4323 44.5115V53.0688H69.1052V36.7485H64.4323V40.5393C63.8479 42.1749 62.3 43.2555 61.1904 43.2555C59.8469 43.2555 58.9708 42.3501 58.9708 40.364V36.7483H54.2977V41.5615C54.2979 44.2194 54.999 47.3738 59.1167 47.3738Z" fill="black"/>
</svg>
