<svg width="107" height="107" viewBox="0 0 107 107" fill="none" xmlns="http://www.w3.org/2000/svg">
<path d="M13.5 59.5L4 92H66.5V67.5L71 65.5L80.5 62L75 57L56.5 51L47.5 54.5H43L35 51L13.5 59.5Z" fill="#FFBB00"/>
<path d="M68 28H23.5V23L25.5 20.5L28 11.5L36 6L40 2H51.5L53.5 5L61 10L66.5 20.5L68 28Z" fill="#FFBB00"/>
<path d="M105.113 70.7027C105.09 65.8732 102.454 64.5589 100.247 64.3066C100.196 64.3009 100.146 64.2977 100.095 64.2969C96.1098 64.2266 94.3882 63.2127 92.5653 62.1393C90.713 61.0478 88.797 59.9196 85.028 59.9196C83.1749 59.9196 81.7716 60.1931 80.6018 60.6004C78.5887 56.1702 74.5608 55.0191 70.6546 53.9064C70.0824 53.7432 69.4905 53.5742 68.9011 53.3962L58.9768 50.3806C62.6316 47.1038 65.4455 42.8491 66.6407 38.631C67.9566 38.3624 69.2848 37.6416 70.3567 36.582C71.6848 35.2701 72.4457 33.6162 72.4457 32.0456V30.0496C72.4457 28.3557 71.2677 26.9353 69.6889 26.554C69.746 26.2887 69.7787 26.0144 69.7787 25.732V23.5638C69.7787 21.8731 68.6889 20.4355 67.1762 19.9065C66.0104 12.4982 61.1842 6.2336 54.2902 3.22292C53.5873 1.34289 51.7734 0 49.6525 0H41.4752C39.3617 0 37.5543 1.32901 36.8425 3.19435C33.4343 4.67193 30.4456 7.00341 28.1639 9.97327C25.9157 12.8999 24.4512 16.3318 23.8838 19.9604C22.4495 20.5286 21.4316 21.9286 21.4316 23.5638V25.732C21.4316 26.0503 21.474 26.3589 21.5467 26.6553C20.1434 27.1467 19.1327 28.4806 19.1327 30.0496V32.0456C19.1327 33.6162 19.8927 35.2693 21.2193 36.5795C22.2512 37.5992 23.5214 38.3077 24.7884 38.5992C25.981 42.8303 28.7991 47.0957 32.4636 50.379L21.5262 53.6974C21.5254 53.6983 21.5254 53.6983 21.5246 53.6983C21.5205 53.6999 21.5156 53.7007 21.5107 53.7023C20.9173 53.8828 20.3434 54.0468 19.7874 54.2052C15.6869 55.375 12.1448 56.3849 10.3676 61.8772C10.3644 61.8862 10.3619 61.896 10.3587 61.905L2.90463 86.4843C1.974 89.5513 1.41236 91.4027 2.40258 92.726C3.18056 93.766 4.39038 93.8803 6.15695 93.8803C6.39532 93.8803 6.64512 93.8779 6.9039 93.8754C7.22472 93.873 7.57004 93.8705 7.94229 93.8705H67.2913C69.9811 98.6445 74.8514 102.904 81.2557 105.959C81.2646 105.963 81.2744 105.967 81.2834 105.972C82.5251 106.534 83.6606 107 84.9831 107H84.9839C86.0925 107 87.2321 106.69 88.8076 105.959C97.2184 101.947 102.988 95.8567 104.641 89.2468C104.939 88.041 105.099 86.8263 105.119 85.6361C105.119 85.6271 105.119 85.6189 105.119 85.61L105.113 70.7027ZM67.2717 34.373L67.3256 29.6096H68.8456C69.0889 29.6096 69.2872 29.8072 69.2872 30.0496V32.0456C69.2872 32.768 68.857 33.6236 68.137 34.3354C67.8627 34.6064 67.5623 34.8383 67.2537 35.0285C67.2643 34.8097 67.2717 34.5901 67.2717 34.373V34.373ZM20.4062 90.7113H7.94229C7.56106 90.7113 7.20595 90.7145 6.87778 90.717C6.22225 90.7227 5.50469 90.7292 5.05896 90.6925C5.16835 89.9031 5.64836 88.3227 5.92755 87.401L13.3775 62.8364C14.6094 59.0429 16.6845 58.3767 20.4062 57.3139V90.7113ZM70.9167 57.2681C74.1192 58.2069 76.5062 59.1441 77.7617 61.9817C77.6719 62.0339 77.5829 62.087 77.4939 62.1393C75.8245 63.1238 74.2392 64.0568 70.9167 64.2593V57.2681ZM39.6768 4.95521C39.6768 3.96498 40.4834 3.15843 41.4752 3.15843H49.6525C50.6403 3.15843 51.4444 3.96416 51.4444 4.95521V10.7945C51.4444 11.7823 50.6403 12.5856 49.6525 12.5856H41.4752C40.4834 12.5856 39.6768 11.7823 39.6768 10.7945V4.95521ZM36.5176 6.86627V10.7953C36.5176 13.5244 38.7421 15.7448 41.4752 15.7448H49.6525C52.3824 15.7448 54.6029 13.5244 54.6029 10.7953V6.89729C59.4487 9.57326 62.8577 14.2321 63.9312 19.6869H27.1378C28.217 14.2044 31.6465 9.53326 36.5176 6.86627V6.86627ZM23.4398 34.3338C22.7206 33.6227 22.2903 32.7672 22.2903 32.0456V30.0496C22.2903 29.8072 22.4887 29.6096 22.7328 29.6096H24.1141L24.163 34.355C24.163 34.5468 24.1704 34.7395 24.1785 34.9322C23.9214 34.7607 23.6716 34.5624 23.4398 34.3338ZM27.6709 37.1567C27.6709 37.1542 27.6709 37.1518 27.6709 37.1502C27.6684 36.9322 27.6219 36.7248 27.5394 36.5363C27.399 35.7918 27.3215 35.0562 27.3215 34.3387L27.2725 29.6112L41.6989 29.621H41.6997C42.5716 29.621 43.2785 28.9149 43.2794 28.043C43.2802 27.1704 42.574 26.4634 41.7014 26.4626L25.6831 26.4512C25.6814 26.4512 25.679 26.4503 25.6774 26.4503H25.3043C24.9173 26.4503 24.59 26.1214 24.59 25.732V23.5638C24.59 23.1744 24.9173 22.8454 25.3043 22.8454H25.3059H25.3084H65.7606H65.7631H65.7647H65.901C66.2913 22.8454 66.6202 23.1744 66.6202 23.5638V25.732C66.6202 26.1214 66.2913 26.4503 65.901 26.4503H48.9415C48.0688 26.4503 47.3619 27.1573 47.3619 28.03C47.3619 28.9026 48.0688 29.6096 48.9415 29.6096H64.1671L64.1141 34.355C64.1141 41.0898 57.5997 49.4231 50.1742 52.1888C46.8925 53.4109 44.5692 53.4142 41.2956 52.2003C34.8604 49.8117 29.1117 43.2564 27.6709 37.1567V37.1567ZM58.625 53.5742C56.998 57.1253 51.6216 59.7474 45.5341 59.7474C39.4181 59.7474 34.1494 57.2159 32.4857 53.6738L35.52 52.7529C37.0066 53.7407 38.5788 54.5611 40.1977 55.162C42.183 55.8983 43.9512 56.2665 45.7194 56.2665C47.4974 56.2665 49.2762 55.8942 51.2763 55.1489C52.8836 54.5505 54.4445 53.7342 55.9212 52.7529L58.625 53.5742ZM58.9523 90.7113H32.0677V86.1185L58.9523 86.134V90.7113ZM58.9523 82.9756L32.0677 82.9601V80.8188C32.0677 80.685 32.1828 80.5682 32.3142 80.5682H58.7066C58.838 80.5682 58.9523 80.685 58.9523 80.8188V82.9756ZM67.7582 64.9042C66.2309 65.6904 64.9492 67.3549 64.9492 70.7305L64.9378 73.173V85.61V85.6361C64.9574 86.8385 65.1214 88.0565 65.4227 89.2508C65.5451 89.7407 65.6937 90.228 65.861 90.7113H62.1116V80.8188C62.1116 78.9388 60.5842 77.409 58.7066 77.409H32.3142C30.4366 77.409 28.9101 78.9388 28.9101 80.8188V90.7113H23.5655V56.38L28.9101 54.7587V69.6366C28.9101 71.5133 30.4366 73.0399 32.3134 73.0399L41.765 73.0456H41.7659C42.6377 73.0456 43.3447 72.3395 43.3447 71.4676C43.3455 70.5949 42.6393 69.888 41.7667 69.8872L32.3142 69.8815C32.1861 69.8815 32.0685 69.7639 32.0685 69.6366V58.2853C35.1167 61.1245 40.005 62.9066 45.5341 62.9066C51.0191 62.9066 55.9539 61.0731 59.0242 58.211V69.6366C59.0242 69.7664 58.9058 69.8815 58.7719 69.8815H49.0003C48.1284 69.8815 47.4215 70.5884 47.4215 71.4603C47.4215 72.3329 48.1284 73.0399 49.0003 73.0399H58.7719C60.6528 73.0399 62.1826 71.5133 62.1826 69.6366V54.655L67.7582 56.3497V64.9042ZM101.961 85.5969C101.944 86.5447 101.814 87.5177 101.575 88.4843C100.153 94.1726 95.0045 99.5025 87.4623 103.101C86.3594 103.613 85.5953 103.841 84.9839 103.841C84.9831 103.841 84.9831 103.841 84.9831 103.841C84.3504 103.841 83.7096 103.602 82.6018 103.101C75.0523 99.496 69.9085 94.1693 68.4864 88.4802C68.244 87.5218 68.1133 86.552 68.0962 85.5969V73.1803L68.1084 70.7264C68.1084 68.5402 68.6513 67.6447 70.106 67.4537C74.8661 67.3549 77.1143 66.03 79.0981 64.8601C80.7871 63.865 82.121 63.0789 85.0288 63.0789C87.9366 63.0789 89.2721 63.865 90.962 64.8609C92.9481 66.0308 95.1972 67.3557 99.9573 67.4537C101.401 67.6439 101.944 68.5369 101.955 70.7182L101.961 73.173V85.5969Z" fill="black"/>
<path d="M91.7463 77.4938C91.0712 76.9404 90.0761 77.0408 89.5242 77.7159L82.7445 86.0026L80.2889 84.063C79.6048 83.5217 78.6113 83.6385 78.0709 84.3234C77.5297 85.0075 77.6464 86.001 78.3313 86.5414L82.0049 89.4435C82.2947 89.6729 82.64 89.7839 82.9829 89.7839C83.4408 89.7839 83.8947 89.5855 84.2066 89.2043L91.9692 79.7159C92.521 79.0408 92.4214 78.0457 91.7463 77.4938V77.4938Z" fill="black"/>
<path d="M95.6617 69.6666C95.6111 69.6609 95.5613 69.6576 95.5099 69.6568C92.8665 69.6086 91.7759 68.9653 90.513 68.2216C89.233 67.4673 87.7815 66.6118 85.028 66.6118C82.2761 66.6118 80.8263 67.4673 79.547 68.2208C78.2842 68.9653 77.1943 69.6086 74.5469 69.6568C74.4963 69.6576 74.4449 69.6609 74.3943 69.6666C72.9738 69.8307 70.5909 70.6911 70.5909 74.612L70.5852 76.3116V84.9526V84.9763C70.5983 85.8547 70.7166 86.7404 70.9338 87.6033C72.115 92.3324 76.2204 96.6803 82.1977 99.5318C82.2075 99.5367 82.2165 99.5407 82.2263 99.5456C83.1422 99.9603 83.9831 100.304 85.0002 100.304C85.8468 100.304 86.6999 100.075 87.8664 99.5318C93.8437 96.6794 97.9491 92.3316 99.1312 87.596C99.3483 86.7094 99.465 85.8286 99.4789 84.978C99.4789 84.9698 99.4789 84.9608 99.4789 84.9526V76.3059L99.4724 74.6112C99.4724 70.6911 97.0854 69.8307 95.6617 69.6666V69.6666ZM96.3197 84.9396C96.3091 85.551 96.2225 86.1919 96.0642 86.8384C95.1123 90.6491 91.6281 94.2361 86.5186 96.6754C85.8296 96.9962 85.3472 97.1456 84.9994 97.1456C84.6468 97.1456 84.2476 96.9937 83.5439 96.6754C78.4278 94.2304 74.9494 90.645 73.9975 86.8351C73.8392 86.2082 73.7534 85.5706 73.7428 84.9396V76.3173L73.7494 74.6112C73.7494 73.1026 74.1347 72.8879 74.689 72.8128C78.1095 72.7352 79.7944 71.7417 81.1512 70.9425C82.3047 70.2625 83.1373 69.7711 85.028 69.7711C86.9195 69.7711 87.7538 70.2625 88.9089 70.9433C90.2657 71.7425 91.9514 72.7352 95.3678 72.8128C95.9254 72.8879 96.3131 73.1034 96.3131 74.6234L96.3197 76.3116V84.9396Z" fill="black"/>
<path d="M35 34H39V38H35V34Z" fill="black"/>
<path d="M51 34H55V38H51V34Z" fill="black"/>
</svg>
