<svg width="148" height="95" viewBox="0 0 148 95" fill="none" xmlns="http://www.w3.org/2000/svg">
<path d="M93.5971 68.9865C94.4792 68.9865 95.1943 69.7016 95.1943 70.5837C95.1943 71.5818 96.0063 72.3939 97.0044 72.3939C98.0026 72.3939 98.8146 71.5818 98.8146 70.5837C98.8146 69.5855 98.0026 68.7735 97.0044 68.7735C96.1224 68.7735 95.4072 68.0584 95.4072 67.1763C95.4072 66.2942 96.1224 65.5791 97.0044 65.5791C99.764 65.5791 102.009 67.8241 102.009 70.5837C102.009 73.3432 99.764 75.5883 97.0044 75.5883C94.2449 75.5883 91.9999 73.3432 91.9999 70.5837C91.9999 69.7016 92.715 68.9865 93.5971 68.9865Z" fill="black"/>
<path d="M73.1535 68.9865C74.0355 68.9865 74.7507 69.7016 74.7507 70.5837C74.7507 71.5818 75.5627 72.3939 76.5608 72.3939C77.559 72.3939 78.371 71.5818 78.371 70.5837C78.371 69.5855 77.559 68.7735 76.5608 68.7735C75.6788 68.7735 74.9636 68.0584 74.9636 67.1763C74.9636 66.2942 75.6788 65.5791 76.5608 65.5791C79.3204 65.5791 81.5654 67.8241 81.5654 70.5837C81.5654 73.3432 79.3204 75.5883 76.5608 75.5883C73.8013 75.5883 71.5563 73.3432 71.5563 70.5837C71.5563 69.7016 72.2714 68.9865 73.1535 68.9865Z" fill="black"/>
<path d="M18.6354 68.9865C19.5175 68.9865 20.2326 69.7016 20.2326 70.5837C20.2326 71.5818 21.0446 72.3939 22.0428 72.3939C23.0409 72.3939 23.8529 71.5818 23.8529 70.5837C23.8529 69.5855 23.0409 68.7735 22.0428 68.7735C21.1607 68.7735 20.4456 68.0584 20.4456 67.1763C20.4456 66.2942 21.1607 65.5791 22.0428 65.5791C24.8023 65.5791 27.0474 67.8241 27.0474 70.5837C27.0474 73.3432 24.8023 75.5883 22.0428 75.5883C19.2832 75.5883 17.0382 73.3432 17.0382 70.5837C17.0382 69.7016 17.7533 68.9865 18.6354 68.9865Z" fill="black"/>
<path d="M0.0010493 46.6943C0.00190115 46.6609 0.00317611 46.6275 0.00615756 46.5938C0.00807421 46.5708 0.0110595 46.548 0.0140409 46.5254C0.0176613 46.4973 0.021707 46.4694 0.0268181 46.4413C0.0321421 46.4128 0.0385321 46.3849 0.0453469 46.357C0.0506709 46.3353 0.0557776 46.3136 0.0621664 46.2918C0.0715367 46.2588 0.0826159 46.2267 0.0941158 46.1947C0.098375 46.183 0.10114 46.1711 0.105613 46.1592L6.94379 28.3797C8.18429 25.1544 11.3395 22.9875 14.795 22.9875H28.8554C31.6149 22.9875 33.86 25.2325 33.86 27.9921V29.1001L40.0041 21.605C40.5356 20.9567 41.2224 20.4686 41.9904 20.1939L71.0149 9.80541C71.7204 9.55284 72.4939 9.48214 73.2518 9.60118L93.1824 12.7281L96.0069 11.717C98.6046 10.7872 101.475 12.1444 102.405 14.7425L106.998 27.5747C107.449 28.8333 107.382 30.192 106.811 31.4005C106.48 32.0988 106.001 32.6945 105.415 33.1634V55.2509C105.415 57.3194 104.473 59.1717 102.997 60.4033C106.48 62.4618 108.822 66.2535 108.822 70.5841C108.822 77.1014 103.52 82.4034 97.0029 82.4034C92.6428 82.4034 88.8295 80.0285 86.7808 76.5061C84.7321 80.0285 80.9188 82.4034 76.5587 82.4034C70.5834 82.4034 65.6327 77.9453 64.8503 72.1813H62.8227V72.2878C62.8227 75.0473 60.5776 77.2924 57.8181 77.2924H47.5959C44.8364 77.2924 42.5914 75.0473 42.5914 72.2878V72.1813H33.749C32.9664 77.9453 28.0159 82.4034 22.0406 82.4034C16.0598 82.4034 11.1055 77.937 10.3301 72.1651C10.2596 72.1747 10.188 72.1813 10.1148 72.1813H3.30003C1.47985 72.1813 -0.000867918 70.7006 -0.000867918 68.8804V46.7325C-0.000867918 46.7197 0.000836343 46.7071 0.0010493 46.6943ZM3.19355 60.4684H5.00372C5.05845 60.4684 5.1102 60.4167 5.1102 60.362V58.6583C5.1102 58.6035 5.05845 58.5518 5.00372 58.5518H3.19355V60.4684ZM4.57716 43.4316H20.3369C22.2744 43.4316 23.8508 41.8552 23.8508 39.9177V32.9965H8.59062L4.57716 43.4316ZM40.2567 58.7648C39.0722 58.0822 38.113 56.9331 37.6066 55.5179L33.86 45.0505V58.7648H40.2567V58.7648ZM34.3223 33.5746C34.015 33.9495 33.8578 34.4714 33.86 35.0341V35.069C33.8651 35.407 33.9272 35.7588 34.0501 36.1021L40.6142 54.4419C40.9464 55.3699 41.6584 56.0687 42.4284 56.2222L53.0959 58.348L44.9337 35.5439C44.6364 34.7133 45.0687 33.7991 45.8993 33.5018C46.7296 33.2045 47.6439 33.6368 47.9414 34.4674L56.3653 58.0026C56.4176 58.1489 56.4462 58.2977 56.4551 58.4455L84.0481 48.5695C83.961 48.4496 83.8869 48.3173 83.8345 48.1708L75.4106 24.6356C75.1133 23.8053 75.5456 22.891 76.3761 22.5937C77.2063 22.2962 78.1207 22.7287 78.4182 23.5593L86.6243 46.4861L98.4034 33.2635L92.1529 15.8005L74.6414 13.0529L76.203 17.4158C76.5003 18.2463 76.068 19.1606 75.2374 19.4579C75.0596 19.5216 74.878 19.5518 74.6993 19.5518C74.0436 19.5518 73.429 19.145 73.1954 18.4925L71.2681 13.1078L43.7991 22.9396L45.7264 28.3243C46.0237 29.1546 45.5913 30.0689 44.7608 30.3664C44.583 30.4301 44.4013 30.4601 44.2226 30.4601C43.5669 30.4601 42.9523 30.0533 42.7187 29.4006L41.2069 25.1769L34.3223 33.5746ZM103.991 28.6512L99.3979 15.819C99.1334 15.08 98.4351 14.6185 97.6919 14.6185C97.4898 14.6185 97.2842 14.6526 97.0836 14.7246L95.3795 15.3345L101.193 31.5754L102.897 30.9652C103.352 30.8023 103.717 30.472 103.923 30.0348C104.129 29.5978 104.154 29.1065 103.991 28.6512ZM98.7066 58.7648C100.644 58.7648 102.22 57.1884 102.22 55.2509V34.6003L101.148 34.984L87.7285 50.048C87.2182 50.6207 86.5755 51.057 85.87 51.3096L65.0411 58.7648H97.0029H98.7066ZM84.6278 61.9592C85.4704 62.748 86.1969 63.6584 86.7808 64.6621C87.3645 63.6584 88.0911 62.748 88.9338 61.9592H84.6278ZM97.0029 79.209C101.759 79.209 105.628 75.3399 105.628 70.5841C105.628 65.8283 101.759 61.9592 97.0029 61.9592C92.2471 61.9592 88.378 65.8283 88.378 70.5841C88.378 75.3399 92.2471 79.209 97.0029 79.209ZM76.5587 79.209C81.3145 79.209 85.1836 75.3399 85.1836 70.5841C85.1836 65.8283 81.3145 61.9592 76.5587 61.9592C71.8028 61.9592 67.9337 65.8283 67.9337 70.5841C67.9337 75.3399 71.8028 79.209 76.5587 79.209ZM45.7858 72.2878C45.7858 73.2859 46.5978 74.098 47.5959 74.098H57.8181C58.8162 74.098 59.6282 73.2859 59.6282 72.2878V68.8804C59.6282 67.8823 58.8162 67.0702 57.8181 67.0702H47.5959C46.5978 67.0702 45.7858 67.8823 45.7858 68.8804V72.2878ZM47.5959 63.8758H57.8181C60.5776 63.8758 62.8227 66.1209 62.8227 68.8804V68.9869H64.8503C65.2247 66.2301 66.5516 63.7734 68.4896 61.9592H30.1097C32.0477 63.7734 33.3748 66.2301 33.749 68.9869H42.5914V68.8804C42.5914 66.1209 44.8364 63.8758 47.5959 63.8758ZM22.0406 79.209C26.7965 79.209 30.6655 75.3399 30.6655 70.5841C30.6655 65.8283 26.7965 61.9592 22.0406 61.9592C17.2848 61.9592 13.4157 65.8283 13.4157 70.5841C13.4157 75.3399 17.2848 79.209 22.0406 79.209ZM3.30003 68.9869H10.1148C10.188 68.9869 10.2596 68.9935 10.3301 69.0031C11.1055 63.231 16.0598 58.7648 22.0406 58.7648H30.6655V34.9259C30.6655 34.9201 30.6655 34.9142 30.6655 34.9082V27.9919C30.6655 26.9937 29.8535 26.1817 28.8554 26.1817H14.7952C12.652 26.1817 10.6949 27.5259 9.92546 29.5263L9.81941 29.802H25.448C26.3301 29.802 27.0452 30.5172 27.0452 31.3992V39.9177C27.0452 43.6166 24.0358 46.626 20.3369 46.626H3.34858L3.19355 47.0291V55.3574H5.00372C6.8239 55.3574 8.30462 56.8381 8.30462 58.6583V60.362C8.30462 62.1821 6.8239 63.6629 5.00372 63.6629H3.19355V68.8804C3.19355 68.9392 3.24125 68.9869 3.30003 68.9869Z" fill="black"/>
<path d="M56.1169 68.9868C56.5386 68.9868 56.9496 69.1572 57.2456 69.4553C57.5437 69.7513 57.7141 70.1645 57.7141 70.584C57.7141 71.0036 57.5437 71.4167 57.2456 71.7127C56.9496 72.0109 56.5386 72.1812 56.1169 72.1812C55.6974 72.1812 55.2842 72.0109 54.9882 71.7127C54.6901 71.4167 54.5197 71.0036 54.5197 70.584C54.5197 70.1645 54.6901 69.7513 54.9882 69.4553C55.2842 69.1572 55.6974 68.9868 56.1169 68.9868Z" fill="black"/>
<g clip-path="url(#clip0)">
<path d="M63.6426 71.5L65.6426 74L66.6426 77.5L73.1426 81.5L80.1426 81L85.6426 77.5L88.1426 71.5H96.6426L103.643 81L112.643 81.5L119.143 76L121.143 70L124.143 74L127.143 77L145.143 76L131.643 61.5L127.643 66.5L121.143 48L108.643 43L106.643 20.5L88.1426 20L87.1426 14.5L85.1426 13L82.6426 15.5L81.6426 20.5L80.1426 21L77.6426 25L75.6426 33L61.6426 28.5H54.1426L53.6426 63L57.1426 67.5L63.6426 71.5Z" fill="#FFBB00"/>
<path d="M81.7593 66.9717C81.0136 67.1638 80.5646 67.9241 80.7569 68.6698C80.852 69.0394 80.9002 69.4228 80.9002 69.8095C80.9002 72.3209 78.8569 74.3642 76.3454 74.3642C73.8339 74.3642 71.7906 72.3209 71.7906 69.8095C71.7906 67.298 73.8339 65.2547 76.3454 65.2547C76.7319 65.2547 77.1154 65.303 77.4852 65.398C78.2313 65.59 78.9911 65.1411 79.1831 64.3952C79.3752 63.6495 78.9262 62.8891 78.1803 62.6973C77.5837 62.5437 76.9663 62.4658 76.3454 62.4658C72.2963 62.4658 69.002 65.7601 69.002 69.8093C69.002 73.8584 72.2963 77.1527 76.3454 77.1527C80.3945 77.1527 83.6888 73.8584 83.6888 69.8093C83.6888 69.1881 83.6109 68.5705 83.4572 67.9738C83.2651 67.2285 82.5044 66.7797 81.7593 66.9717Z" fill="black"/>
<path d="M114.48 66.9717C113.734 67.1638 113.285 67.9241 113.478 68.6698C113.573 69.0394 113.621 69.4228 113.621 69.8095C113.621 72.3209 111.578 74.3642 109.066 74.3642C106.555 74.3642 104.511 72.3209 104.511 69.8095C104.511 67.298 106.555 65.2547 109.066 65.2547C109.453 65.2547 109.836 65.303 110.206 65.398C110.952 65.59 111.712 65.1411 111.904 64.3952C112.096 63.6495 111.647 62.8891 110.901 62.6973C110.304 62.5437 109.687 62.4658 109.066 62.4658C105.017 62.4658 101.723 65.7601 101.723 69.8093C101.723 73.8584 105.017 77.1527 109.066 77.1527C113.115 77.1527 116.41 73.8584 116.41 69.8093C116.41 69.1881 116.332 68.5705 116.178 67.9738C115.986 67.2285 115.225 66.7797 114.48 66.9717Z" fill="black"/>
<path d="M147.35 78.0984C147.364 78.0798 147.379 78.0612 147.392 78.042C147.404 78.0246 147.416 78.0064 147.427 77.9881C147.44 77.9681 147.452 77.9478 147.464 77.9272C147.475 77.908 147.485 77.8883 147.494 77.8684C147.505 77.8481 147.515 77.8279 147.524 77.8071C147.533 77.7857 147.542 77.7637 147.55 77.7418C147.558 77.7217 147.565 77.7018 147.572 77.6816C147.58 77.6587 147.586 77.6353 147.592 77.6118C147.598 77.5916 147.603 77.5711 147.608 77.5507C147.613 77.5276 147.617 77.5042 147.621 77.4808C147.625 77.4588 147.628 77.4369 147.631 77.4148C147.634 77.3928 147.636 77.3705 147.637 77.3482C147.639 77.3237 147.64 77.2991 147.641 77.2746C147.641 77.2649 147.642 77.2555 147.642 77.2456C147.642 77.2341 147.641 77.2227 147.641 77.2114C147.64 77.1863 147.639 77.1612 147.637 77.1361C147.635 77.1145 147.633 77.0932 147.63 77.0718C147.627 77.0482 147.624 77.0247 147.62 77.0013C147.616 76.9794 147.612 76.9574 147.607 76.9359C147.601 76.9134 147.596 76.8913 147.589 76.8691C147.583 76.8474 147.577 76.8258 147.57 76.8046C147.563 76.7829 147.555 76.7615 147.546 76.7401C147.538 76.7193 147.53 76.6985 147.521 76.6782C147.511 76.6572 147.501 76.6366 147.491 76.6161C147.48 76.596 147.47 76.5761 147.459 76.5564C147.448 76.5369 147.436 76.5176 147.424 76.4984C147.411 76.4785 147.398 76.4592 147.384 76.4401C147.372 76.4224 147.359 76.4051 147.345 76.388C147.33 76.3683 147.314 76.3492 147.298 76.3302C147.29 76.3215 147.283 76.3122 147.276 76.3036L130.916 58.4562C130.395 57.8885 129.513 57.8504 128.945 58.3705C128.378 58.8909 128.339 59.7729 128.86 60.3406L130.137 61.7337C130.134 61.739 130.131 61.7441 130.128 61.7495L128.675 64.6545L123.647 49.1708C123.22 47.8077 122.153 46.7376 120.792 46.3085L110.272 42.9865C110.271 42.9463 110.269 42.906 110.264 42.8653L107.671 22.1235H110.554C111.324 22.1235 111.948 21.4992 111.948 20.7292C111.948 19.9591 111.324 19.3348 110.554 19.3348H89.6387V16.2673C89.6387 13.8583 87.6788 11.8984 85.2698 11.8984C82.8608 11.8984 80.9009 13.8583 80.9009 16.2673V19.409C78.3361 19.8163 76.3019 21.8872 76.0066 24.5442L75.1886 31.9072L64.2759 28.4612C64.0781 28.3987 63.8769 28.3838 63.6838 28.408C62.5875 27.3524 61.1513 26.7712 59.6252 26.7712H54.0369C53.2669 26.7712 52.6426 27.3955 52.6426 28.1656V35.6016C52.6426 35.6018 52.6426 35.6021 52.6426 35.6025V62.9121C52.6426 65.8536 54.3896 68.503 57.0933 69.6618L63.2945 72.3194C64.4717 78.4525 69.8748 83.102 76.3461 83.102C82.686 83.102 88.0001 78.6392 89.3204 72.691H96.0918C97.4121 78.6392 102.726 83.102 109.066 83.102C115.523 83.102 120.917 78.473 122.111 72.3597L123.533 76.644C123.592 76.821 123.685 76.9753 123.8 77.1086C123.829 77.1642 123.861 77.2192 123.894 77.2735C124.423 78.1292 125.34 78.6401 126.345 78.6401H146.248H146.248H146.249C146.293 78.6401 146.338 78.6377 146.383 78.6332C146.4 78.6316 146.416 78.6288 146.432 78.6265C146.46 78.6228 146.487 78.6193 146.515 78.6139C146.534 78.6102 146.553 78.6054 146.572 78.6007C146.596 78.5949 146.62 78.5892 146.644 78.5821C146.663 78.5763 146.682 78.5698 146.701 78.5633C146.724 78.5555 146.746 78.5475 146.769 78.5384C146.788 78.531 146.806 78.5228 146.824 78.5144C146.846 78.5044 146.868 78.4942 146.89 78.483C146.908 78.4737 146.925 78.4637 146.943 78.4537C146.963 78.4419 146.984 78.4297 147.004 78.4167C147.021 78.4051 147.039 78.3932 147.056 78.381C147.074 78.3678 147.093 78.354 147.111 78.3399C147.128 78.3261 147.145 78.3118 147.162 78.2971C147.172 78.2891 147.182 78.2821 147.19 78.2737C147.198 78.267 147.204 78.2597 147.211 78.2531C147.229 78.2359 147.246 78.2183 147.263 78.2003C147.278 78.1841 147.293 78.1679 147.308 78.1514C147.322 78.1341 147.336 78.1164 147.35 78.0984ZM120.991 50.018L126.898 68.2096L124.959 72.0885L118.424 52.4045C118.283 51.9799 117.948 51.649 117.521 51.5142L71.4528 36.9664C71.1652 36.1597 70.6996 35.4201 70.0761 34.7966L67.7678 32.4883L119.953 48.968C120.445 49.1232 120.832 49.5104 120.991 50.018ZM84.1262 44.3169L84.1805 43.9099L91.1343 46.1059H85.6925C85.2304 46.1059 84.808 45.9144 84.5035 45.5665C84.1989 45.2187 84.0653 44.7749 84.1262 44.3169ZM71.7913 39.9976L74.2048 40.7598L73.767 44.7004C73.6779 45.5019 73.0027 46.1061 72.1964 46.1061H71.7913V39.9976ZM85.3529 35.1171L86.3075 27.9566C86.4118 27.1748 87.0852 26.5853 87.874 26.5853H105.419L107.353 42.0647L85.3529 35.1171ZM85.2698 14.6871C86.1411 14.6871 86.85 15.396 86.85 16.2673V19.3348H83.6895V16.2673C83.6895 15.396 84.3984 14.6871 85.2698 14.6871ZM78.7782 24.8523C78.9511 23.2966 80.2617 22.1235 81.8269 22.1235H104.861L105.07 23.7967H87.874C85.6935 23.7967 83.8316 25.4267 83.5434 27.5881L82.6533 34.2647L77.8992 32.7635L78.7782 24.8523ZM59.6252 29.5599C60.4445 29.5599 61.2149 29.8789 61.7942 30.4584L68.1042 36.7684C68.6834 37.3477 69.0027 38.1181 69.0027 38.9374V58.7366C65.5817 61.0129 63.2707 64.8294 63.0693 69.1888L61.3733 68.4619C61.3779 68.416 61.3803 68.3693 61.3803 68.3221V44.0153C61.3803 42.0538 60.6164 40.2097 59.2296 38.8227L55.4312 35.0245V29.5599H59.6252ZM55.4312 62.9119V38.968L57.2576 40.7944C58.118 41.6548 58.5917 42.7985 58.5917 44.0153V67.2699L58.1918 67.0985C56.5149 66.3799 55.4312 64.7365 55.4312 62.9119ZM76.3461 80.3133C70.5543 80.3133 65.8422 75.6012 65.8422 69.8094C65.8422 64.0176 70.5543 59.3055 76.3461 59.3055C82.1379 59.3055 86.85 64.0176 86.85 69.8094C86.85 75.6012 82.1379 80.3133 76.3461 80.3133ZM109.066 80.3133C103.274 80.3133 98.5623 75.6012 98.5623 69.8094C98.5623 64.0176 103.274 59.3055 109.066 59.3055C114.858 59.3055 119.57 64.0176 119.57 69.8094C119.57 75.6012 114.858 80.3133 109.066 80.3133ZM109.066 56.5168C101.737 56.5168 95.7737 62.4799 95.7737 69.8094C95.7737 69.8406 95.7757 69.8713 95.7761 69.9023H89.6364C89.6366 69.8713 89.6389 69.8406 89.6389 69.8094C89.6389 62.4799 83.6758 56.5168 76.3463 56.5168C74.7469 56.5168 73.213 56.8009 71.7915 57.3211V54.8436H100.143C100.913 54.8436 101.537 54.2194 101.537 53.4493C101.537 52.6793 100.913 52.055 100.143 52.055H71.7913V48.8945H72.1964C74.4257 48.8945 76.2924 47.2237 76.5385 45.0081L76.9154 41.6156L81.4807 43.0573L81.362 43.9482C81.1954 45.1966 81.5757 46.4559 82.4055 47.4035C83.2352 48.3511 84.4332 48.8945 85.6927 48.8945H99.9652L109.973 52.055H106.092C105.322 52.055 104.697 52.6793 104.697 53.4493C104.697 54.2194 105.322 54.8436 106.092 54.8436H116.296L117.999 59.9738C115.637 57.8269 112.502 56.5168 109.066 56.5168ZM126.266 75.8074C126.239 75.7633 126.254 75.7342 126.262 75.7169L132.154 63.9335L143.079 75.8515H126.346C126.326 75.8515 126.294 75.8515 126.266 75.8074Z" fill="black"/>
</g>
<defs>
<clipPath id="clip0">
<rect width="95" height="95" fill="white" transform="translate(52.6426)"/>
</clipPath>
</defs>
</svg>
