<svg width="101" height="101" viewBox="0 0 101 101" fill="none" xmlns="http://www.w3.org/2000/svg">
<path d="M68 40H17V91H70V40H68Z" fill="#FFBB00"/>
<path d="M90.2692 40.3156C90.2696 40.3079 90.2696 40.3003 90.2692 40.2927V28.998C90.2692 28.7894 90.222 28.5834 90.131 28.3956C90.0399 28.2078 89.9075 28.0431 89.7437 27.9139L79.7462 20.0232C79.5025 19.8311 79.2012 19.7266 78.8909 19.7266H71.9471V9.86328C71.9453 8.242 71.3004 6.68766 70.1539 5.54123C69.0075 4.39481 67.4532 3.74993 65.8319 3.74805H21.2065C19.5852 3.74993 18.0308 4.39481 16.8844 5.54123C15.738 6.68766 15.0931 8.242 15.0912 9.86328V89.7559H12.1094C11.7431 89.7559 11.3919 89.9013 11.133 90.1603C10.874 90.4193 10.7285 90.7705 10.7285 91.1367V95.8711C10.7285 96.2373 10.874 96.5885 11.133 96.8475C11.3919 97.1065 11.7431 97.252 12.1094 97.252H74.9314C75.1127 97.2521 75.2923 97.2164 75.4599 97.1471C75.6275 97.0777 75.7798 96.976 75.908 96.8477C76.0363 96.7195 76.138 96.5672 76.2073 96.3997C76.2767 96.2321 76.3123 96.0525 76.3122 95.8711V91.1367C76.3123 90.9554 76.2767 90.7757 76.2073 90.6082C76.138 90.4406 76.0363 90.2883 75.908 90.1601C75.7798 90.0318 75.6275 89.9301 75.4599 89.8608C75.2923 89.7914 75.1127 89.7558 74.9314 89.7559H71.9471V63.8036H73.6752C73.8174 63.8038 73.9538 63.8604 74.0544 63.961C74.1549 64.0616 74.2115 64.1979 74.2117 64.3402V76.6416C74.2117 78.771 75.0576 80.8131 76.5633 82.3188C78.069 83.8245 80.1111 84.6703 82.2405 84.6703C84.3698 84.6703 86.4119 83.8245 87.9176 82.3188C89.4233 80.8131 90.2692 78.771 90.2692 76.6416V45.0728C90.2696 45.0652 90.2696 45.0576 90.2692 45.0499V40.3156ZM87.5074 43.6691H85.5348V41.6964H87.5074V43.6691ZM87.5074 29.668V38.9347H85.5348V31.2942C85.5258 31.0815 85.472 30.8732 85.3768 30.6828C85.2816 30.4924 85.1472 30.3243 84.9824 30.1895C84.7358 29.9856 84.4258 29.874 84.1058 29.8739H77.3364V25.9183C77.3364 25.8923 77.3443 25.8678 77.3443 25.8394V22.4883H78.4119L87.5074 29.668ZM73.6752 56.3075H71.9471V35.627C71.9471 35.6112 71.9471 35.5962 71.9471 35.5812V27.2227H74.5747V31.2548C74.5746 31.4361 74.6103 31.6157 74.6796 31.7833C74.749 31.9509 74.8507 32.1032 74.9789 32.2314C75.1072 32.3597 75.2594 32.4614 75.427 32.5307C75.5946 32.6001 75.7742 32.6357 75.9556 32.6356H77.1076V34.7188C77.1089 35.7124 77.5041 36.665 78.2068 37.3676C78.9094 38.0703 79.862 38.4655 80.8557 38.4668H82.7731V76.6416C82.7731 76.7829 82.717 76.9184 82.6171 77.0183C82.5172 77.1181 82.3817 77.1743 82.2405 77.1743C82.0992 77.1743 81.9637 77.1181 81.8638 77.0183C81.764 76.9184 81.7078 76.7829 81.7078 76.6416V64.3402C81.7053 62.2105 80.8582 60.1689 79.3524 58.663C77.8465 57.1571 75.8048 56.31 73.6752 56.3075ZM82.7731 32.6356V35.7051H80.8557C80.5941 35.7049 80.3434 35.6009 80.1584 35.416C79.9735 35.231 79.8695 34.9803 79.8693 34.7188V32.6356H82.7731ZM74.5826 22.4883V24.4609H71.9495V22.4883H74.5826ZM21.2065 6.50977H65.8343C66.7234 6.51081 67.5757 6.86446 68.2044 7.49314C68.8331 8.12182 69.1867 8.97419 69.1878 9.86328V35.6041C69.1811 36.4889 68.8253 37.3353 68.1977 37.9591C67.5701 38.5828 66.7215 38.9335 65.8366 38.9347H21.2065C20.3247 38.9333 19.4789 38.5848 18.852 37.9646C18.2252 37.3444 17.8677 36.5024 17.8569 35.6206V21.3757C17.8569 21.3623 17.8569 21.3505 17.8569 21.3378V9.86328C17.8579 8.97488 18.2111 8.1231 18.8389 7.49453C19.4667 6.86596 20.3181 6.51185 21.2065 6.50977ZM73.5505 94.4902H13.4934V92.5176H73.5505V94.4902ZM17.8569 89.7559V40.6912C18.8508 41.3473 20.0156 41.6969 21.2065 41.6964H65.8343C67.0258 41.6966 68.191 41.3468 69.1854 40.6904V89.7559H17.8569ZM82.2444 81.9126C80.847 81.9109 79.5073 81.355 78.5191 80.3669C77.531 79.3788 76.9751 78.0391 76.9735 76.6416V64.3402C76.9724 63.4657 76.6246 62.6274 76.0063 62.0091C75.3879 61.3907 74.5496 61.0429 73.6752 61.0419H71.9471V59.0692H73.6752C75.0727 59.0707 76.4125 59.6265 77.4007 60.6147C78.3889 61.6028 78.9447 62.9427 78.9461 64.3402V76.6416C78.9461 77.0743 79.0313 77.5026 79.1969 77.9023C79.3624 78.302 79.6051 78.6652 79.911 78.9711C80.2169 79.277 80.5801 79.5197 80.9798 79.6852C81.3795 79.8508 81.8078 79.936 82.2405 79.936C82.6731 79.936 83.1014 79.8508 83.5011 79.6852C83.9008 79.5197 84.264 79.277 84.5699 78.9711C84.8758 78.6652 85.1185 78.302 85.284 77.9023C85.4496 77.5026 85.5348 77.0743 85.5348 76.6416V46.4308H87.5074V76.6416C87.5068 78.038 86.9524 79.3771 85.9657 80.3653C84.9791 81.3534 83.6408 81.9099 82.2444 81.9126Z" fill="black"/>
<path d="M21.2072 60.9212C20.8409 60.9212 20.4897 61.0666 20.2307 61.3256C19.9718 61.5846 19.8263 61.9358 19.8263 62.302V67.8254C19.8263 68.1917 19.9718 68.5429 20.2307 68.8019C20.4897 69.0608 20.8409 69.2063 21.2072 69.2063C21.5734 69.2063 21.9246 69.0608 22.1836 68.8019C22.4425 68.5429 22.588 68.1917 22.588 67.8254V62.302C22.5881 62.1206 22.5525 61.941 22.4831 61.7735C22.4138 61.6059 22.312 61.4536 22.1838 61.3254C22.0556 61.1971 21.9033 61.0954 21.7357 61.0261C21.5681 60.9567 21.3885 60.921 21.2072 60.9212Z" fill="black"/>
<path d="M25.9415 32.2277H61.1006C61.4668 32.2277 61.818 32.0822 62.077 31.8232C62.336 31.5643 62.4814 31.213 62.4814 30.8468V14.5977C62.4814 14.2314 62.336 13.8802 62.077 13.6212C61.818 13.3623 61.4668 13.2168 61.1006 13.2168H25.9415C25.5753 13.2168 25.2241 13.3623 24.9651 13.6212C24.7062 13.8802 24.5607 14.2314 24.5607 14.5977V30.8468C24.5607 31.213 24.7062 31.5643 24.9651 31.8232C25.2241 32.0822 25.5753 32.2277 25.9415 32.2277ZM27.3224 15.9785H59.7197V29.466H27.3224V15.9785Z" fill="black"/>
<path d="M43.5209 55.3086C41.0779 55.3086 38.6898 56.033 36.6585 57.3903C34.6273 58.7475 33.0441 60.6766 32.1092 62.9337C31.1743 65.1907 30.9297 67.6743 31.4063 70.0703C31.8829 72.4664 33.0593 74.6673 34.7868 76.3947C36.5142 78.1222 38.7151 79.2986 41.1112 79.7752C43.5072 80.2518 45.9908 80.0072 48.2478 79.0723C50.5049 78.1374 52.434 76.5542 53.7912 74.5229C55.1485 72.4917 55.8729 70.1036 55.8729 67.6606C55.8694 64.3857 54.5669 61.246 52.2512 58.9303C49.9355 56.6146 46.7958 55.3121 43.5209 55.3086ZM43.5209 77.25C41.6241 77.25 39.7699 76.6876 38.1928 75.6337C36.6157 74.5799 35.3865 73.0821 34.6606 71.3296C33.9348 69.5772 33.7449 67.6489 34.115 65.7885C34.4851 63.9282 35.3986 62.2193 36.7399 60.8782C38.0812 59.537 39.7901 58.6236 41.6505 58.2537C43.5108 57.8837 45.4391 58.0738 47.1915 58.7997C48.9439 59.5257 50.4416 60.7551 51.4953 62.3323C52.549 63.9095 53.1114 65.7638 53.1112 67.6606C53.1081 70.203 52.0966 72.6403 50.2987 74.4379C48.5008 76.2355 46.0633 77.2473 43.5209 77.25Z" fill="black"/>
<path d="M42.5305 60.0816C42.0058 60.6205 37.4056 65.4693 37.4056 69.5424C37.4056 71.1643 38.0498 72.7197 39.1967 73.8665C40.3435 75.0134 41.8989 75.6577 43.5208 75.6577C45.1427 75.6577 46.6981 75.0134 47.8449 73.8665C48.9918 72.7197 49.636 71.1643 49.636 69.5424C49.636 65.4693 45.035 60.6205 44.5071 60.0816C44.2422 59.8249 43.8877 59.6813 43.5188 59.6813C43.1499 59.6813 42.7955 59.8249 42.5305 60.0816ZM43.5208 72.8959C42.6317 72.8949 41.7793 72.5412 41.1507 71.9126C40.522 71.2839 40.1683 70.4315 40.1673 69.5424C40.1673 67.5698 42.1044 64.808 43.5208 63.1155C44.9364 64.8112 46.8743 67.5698 46.8743 69.5424C46.8733 70.4317 46.5195 71.2841 45.8907 71.9128C45.2618 72.5415 44.41 72.8951 43.5208 72.8959Z" fill="black"/>
<path d="M90.2692 40.3156C90.2696 40.3079 90.2696 40.3003 90.2692 40.2927V28.998C90.2692 28.7894 90.222 28.5834 90.131 28.3956C90.0399 28.2078 89.9075 28.0431 89.7437 27.9139L79.7462 20.0232C79.5025 19.8311 79.2012 19.7266 78.8909 19.7266H71.9471V9.86328C71.9453 8.242 71.3004 6.68766 70.1539 5.54123C69.0075 4.39481 67.4532 3.74993 65.8319 3.74805H21.2065C19.5852 3.74993 18.0308 4.39481 16.8844 5.54123C15.738 6.68766 15.0931 8.242 15.0912 9.86328V89.7559H12.1094C11.7431 89.7559 11.3919 89.9013 11.133 90.1603C10.874 90.4193 10.7285 90.7705 10.7285 91.1367V95.8711C10.7285 96.2373 10.874 96.5885 11.133 96.8475C11.3919 97.1065 11.7431 97.252 12.1094 97.252H74.9314C75.1127 97.2521 75.2923 97.2164 75.4599 97.1471C75.6275 97.0777 75.7798 96.976 75.908 96.8477C76.0363 96.7195 76.138 96.5672 76.2073 96.3997C76.2767 96.2321 76.3123 96.0525 76.3122 95.8711V91.1367C76.3123 90.9554 76.2767 90.7757 76.2073 90.6082C76.138 90.4406 76.0363 90.2883 75.908 90.1601C75.7798 90.0318 75.6275 89.9301 75.4599 89.8608C75.2923 89.7914 75.1127 89.7558 74.9314 89.7559H71.9471V63.8036H73.6752C73.8174 63.8038 73.9538 63.8604 74.0544 63.961C74.1549 64.0616 74.2115 64.1979 74.2117 64.3402V76.6416C74.2117 78.771 75.0576 80.8131 76.5633 82.3188C78.069 83.8245 80.1111 84.6703 82.2405 84.6703C84.3698 84.6703 86.4119 83.8245 87.9176 82.3188C89.4233 80.8131 90.2692 78.771 90.2692 76.6416V45.0728C90.2696 45.0652 90.2696 45.0576 90.2692 45.0499V40.3156ZM87.5074 43.6691H85.5348V41.6964H87.5074V43.6691ZM87.5074 29.668V38.9347H85.5348V31.2942C85.5258 31.0815 85.472 30.8732 85.3768 30.6828C85.2816 30.4924 85.1472 30.3243 84.9824 30.1895C84.7358 29.9856 84.4258 29.874 84.1058 29.8739H77.3364V25.9183C77.3364 25.8923 77.3443 25.8678 77.3443 25.8394V22.4883H78.4119L87.5074 29.668ZM73.6752 56.3075H71.9471V35.627C71.9471 35.6112 71.9471 35.5962 71.9471 35.5812V27.2227H74.5747V31.2548C74.5746 31.4361 74.6103 31.6157 74.6796 31.7833C74.749 31.9509 74.8507 32.1032 74.9789 32.2314C75.1072 32.3597 75.2594 32.4614 75.427 32.5307C75.5946 32.6001 75.7742 32.6357 75.9556 32.6356H77.1076V34.7188C77.1089 35.7124 77.5041 36.665 78.2068 37.3676C78.9094 38.0703 79.862 38.4655 80.8557 38.4668H82.7731V76.6416C82.7731 76.7829 82.717 76.9184 82.6171 77.0183C82.5172 77.1181 82.3817 77.1743 82.2405 77.1743C82.0992 77.1743 81.9637 77.1181 81.8638 77.0183C81.764 76.9184 81.7078 76.7829 81.7078 76.6416V64.3402C81.7053 62.2105 80.8582 60.1689 79.3524 58.663C77.8465 57.1571 75.8048 56.31 73.6752 56.3075ZM82.7731 32.6356V35.7051H80.8557C80.5941 35.7049 80.3434 35.6009 80.1584 35.416C79.9735 35.231 79.8695 34.9803 79.8693 34.7188V32.6356H82.7731ZM74.5826 22.4883V24.4609H71.9495V22.4883H74.5826ZM21.2065 6.50977H65.8343C66.7234 6.51081 67.5757 6.86446 68.2044 7.49314C68.8331 8.12182 69.1867 8.97419 69.1878 9.86328V35.6041C69.1811 36.4889 68.8253 37.3353 68.1977 37.9591C67.5701 38.5828 66.7215 38.9335 65.8366 38.9347H21.2065C20.3247 38.9333 19.4789 38.5848 18.852 37.9646C18.2252 37.3444 17.8677 36.5024 17.8569 35.6206V21.3757C17.8569 21.3623 17.8569 21.3505 17.8569 21.3378V9.86328C17.8579 8.97488 18.2111 8.1231 18.8389 7.49453C19.4667 6.86596 20.3181 6.51185 21.2065 6.50977ZM73.5505 94.4902H13.4934V92.5176H73.5505V94.4902ZM17.8569 89.7559V40.6912C18.8508 41.3473 20.0156 41.6969 21.2065 41.6964H65.8343C67.0258 41.6966 68.191 41.3468 69.1854 40.6904V89.7559H17.8569ZM82.2444 81.9126C80.847 81.9109 79.5073 81.355 78.5191 80.3669C77.531 79.3788 76.9751 78.0391 76.9735 76.6416V64.3402C76.9724 63.4657 76.6246 62.6274 76.0063 62.0091C75.3879 61.3907 74.5496 61.0429 73.6752 61.0419H71.9471V59.0692H73.6752C75.0727 59.0707 76.4125 59.6265 77.4007 60.6147C78.3889 61.6028 78.9447 62.9427 78.9461 64.3402V76.6416C78.9461 77.0743 79.0313 77.5026 79.1969 77.9023C79.3624 78.302 79.6051 78.6652 79.911 78.9711C80.2169 79.277 80.5801 79.5197 80.9798 79.6852C81.3795 79.8508 81.8078 79.936 82.2405 79.936C82.6731 79.936 83.1014 79.8508 83.5011 79.6852C83.9008 79.5197 84.264 79.277 84.5699 78.9711C84.8758 78.6652 85.1185 78.302 85.284 77.9023C85.4496 77.5026 85.5348 77.0743 85.5348 76.6416V46.4308H87.5074V76.6416C87.5068 78.038 86.9524 79.3771 85.9657 80.3653C84.9791 81.3534 83.6408 81.9099 82.2444 81.9126Z" stroke="black"/>
<path d="M21.2072 60.9212C20.8409 60.9212 20.4897 61.0666 20.2307 61.3256C19.9718 61.5846 19.8263 61.9358 19.8263 62.302V67.8254C19.8263 68.1917 19.9718 68.5429 20.2307 68.8019C20.4897 69.0608 20.8409 69.2063 21.2072 69.2063C21.5734 69.2063 21.9246 69.0608 22.1836 68.8019C22.4425 68.5429 22.588 68.1917 22.588 67.8254V62.302C22.5881 62.1206 22.5525 61.941 22.4831 61.7735C22.4138 61.6059 22.312 61.4536 22.1838 61.3254C22.0556 61.1971 21.9033 61.0954 21.7357 61.0261C21.5681 60.9567 21.3885 60.921 21.2072 60.9212Z" stroke="black"/>
<path d="M25.9415 32.2277H61.1006C61.4668 32.2277 61.818 32.0822 62.077 31.8232C62.336 31.5643 62.4814 31.213 62.4814 30.8468V14.5977C62.4814 14.2314 62.336 13.8802 62.077 13.6212C61.818 13.3623 61.4668 13.2168 61.1006 13.2168H25.9415C25.5753 13.2168 25.2241 13.3623 24.9651 13.6212C24.7062 13.8802 24.5607 14.2314 24.5607 14.5977V30.8468C24.5607 31.213 24.7062 31.5643 24.9651 31.8232C25.2241 32.0822 25.5753 32.2277 25.9415 32.2277ZM27.3224 15.9785H59.7197V29.466H27.3224V15.9785Z" stroke="black"/>
<path d="M43.5209 55.3086C41.0779 55.3086 38.6898 56.033 36.6585 57.3903C34.6273 58.7475 33.0441 60.6766 32.1092 62.9337C31.1743 65.1907 30.9297 67.6743 31.4063 70.0703C31.8829 72.4664 33.0593 74.6673 34.7868 76.3947C36.5142 78.1222 38.7151 79.2986 41.1112 79.7752C43.5072 80.2518 45.9908 80.0072 48.2478 79.0723C50.5049 78.1374 52.434 76.5542 53.7912 74.5229C55.1485 72.4917 55.8729 70.1036 55.8729 67.6606C55.8694 64.3857 54.5669 61.246 52.2512 58.9303C49.9355 56.6146 46.7958 55.3121 43.5209 55.3086ZM43.5209 77.25C41.6241 77.25 39.7699 76.6876 38.1928 75.6337C36.6157 74.5799 35.3865 73.0821 34.6606 71.3296C33.9348 69.5772 33.7449 67.6489 34.115 65.7885C34.4851 63.9282 35.3986 62.2193 36.7399 60.8782C38.0812 59.537 39.7901 58.6236 41.6505 58.2537C43.5108 57.8837 45.4391 58.0738 47.1915 58.7997C48.9439 59.5257 50.4416 60.7551 51.4953 62.3323C52.549 63.9095 53.1114 65.7638 53.1112 67.6606C53.1081 70.203 52.0966 72.6403 50.2987 74.4379C48.5008 76.2355 46.0633 77.2473 43.5209 77.25Z" stroke="black"/>
<path d="M42.5305 60.0816C42.0058 60.6205 37.4056 65.4693 37.4056 69.5424C37.4056 71.1643 38.0498 72.7197 39.1967 73.8665C40.3435 75.0134 41.8989 75.6577 43.5208 75.6577C45.1427 75.6577 46.6981 75.0134 47.8449 73.8665C48.9918 72.7197 49.636 71.1643 49.636 69.5424C49.636 65.4693 45.035 60.6205 44.5071 60.0816C44.2422 59.8249 43.8877 59.6813 43.5188 59.6813C43.1499 59.6813 42.7955 59.8249 42.5305 60.0816ZM43.5208 72.8959C42.6317 72.8949 41.7793 72.5412 41.1507 71.9126C40.522 71.2839 40.1683 70.4315 40.1673 69.5424C40.1673 67.5698 42.1044 64.808 43.5208 63.1155C44.9364 64.8112 46.8743 67.5698 46.8743 69.5424C46.8733 70.4317 46.5195 71.2841 45.8907 71.9128C45.2618 72.5415 44.41 72.8951 43.5208 72.8959Z" stroke="black"/>
</svg>
